<?xml version="1.0" encoding="UTF-8"?>
<!DOCTYPE svg PUBLIC "-//W3C//DTD SVG 1.1//EN" "http://www.w3.org/Graphics/SVG/1.1/DTD/svg11.dtd">
<svg version="1.2" width="32mm" height="32mm" viewBox="0 0 3200 3200" preserveAspectRatio="xMidYMid" fill-rule="evenodd" stroke-width="28.222" stroke-linejoin="round" xmlns="http://www.w3.org/2000/svg" xmlns:ooo="http://xml.openoffice.org/svg/export" xmlns:xlink="http://www.w3.org/1999/xlink" xmlns:presentation="http://sun.com/xmlns/staroffice/presentation" xmlns:smil="http://www.w3.org/2001/SMIL20/" xmlns:anim="urn:oasis:names:tc:opendocument:xmlns:animation:1.0" xml:space="preserve">
 <defs class="ClipPathGroup">
  <clipPath id="presentation_clip_path" clipPathUnits="userSpaceOnUse">
   <rect x="0" y="0" width="3200" height="3200"/>
  </clipPath>
  <clipPath id="presentation_clip_path_shrink" clipPathUnits="userSpaceOnUse">
   <rect x="3" y="3" width="3194" height="3194"/>
  </clipPath>
 </defs>
 <defs class="TextShapeIndex">
  <g ooo:slide="id1" ooo:id-list="id3 id4 id5"/>
 </defs>
 <defs class="EmbeddedBulletChars">
  <g id="bullet-char-template-57356" transform="scale(0.00048828125,-0.00048828125)">
   <path d="M 580,1141 L 1163,571 580,0 -4,571 580,1141 Z"/>
  </g>
  <g id="bullet-char-template-57354" transform="scale(0.00048828125,-0.00048828125)">
   <path d="M 8,1128 L 1137,1128 1137,0 8,0 8,1128 Z"/>
  </g>
  <g id="bullet-char-template-10146" transform="scale(0.00048828125,-0.00048828125)">
   <path d="M 174,0 L 602,739 174,1481 1456,739 174,0 Z M 1358,739 L 309,1346 659,739 1358,739 Z"/>
  </g>
  <g id="bullet-char-template-10132" transform="scale(0.00048828125,-0.00048828125)">
   <path d="M 2015,739 L 1276,0 717,0 1260,543 174,543 174,936 1260,936 717,1481 1274,1481 2015,739 Z"/>
  </g>
  <g id="bullet-char-template-10007" transform="scale(0.00048828125,-0.00048828125)">
   <path d="M 0,-2 C -7,14 -16,27 -25,37 L 356,567 C 262,823 215,952 215,954 215,979 228,992 255,992 264,992 276,990 289,987 310,991 331,999 354,1012 L 381,999 492,748 772,1049 836,1024 860,1049 C 881,1039 901,1025 922,1006 886,937 835,863 770,784 769,783 710,716 594,584 L 774,223 C 774,196 753,168 711,139 L 727,119 C 717,90 699,76 672,76 641,76 570,178 457,381 L 164,-76 C 142,-110 111,-127 72,-127 30,-127 9,-110 8,-76 1,-67 -2,-52 -2,-32 -2,-23 -1,-13 0,-2 Z"/>
  </g>
  <g id="bullet-char-template-10004" transform="scale(0.00048828125,-0.00048828125)">
   <path d="M 285,-33 C 182,-33 111,30 74,156 52,228 41,333 41,471 41,549 55,616 82,672 116,743 169,778 240,778 293,778 328,747 346,684 L 369,508 C 377,444 397,411 428,410 L 1163,1116 C 1174,1127 1196,1133 1229,1133 1271,1133 1292,1118 1292,1087 L 1292,965 C 1292,929 1282,901 1262,881 L 442,47 C 390,-6 338,-33 285,-33 Z"/>
  </g>
  <g id="bullet-char-template-9679" transform="scale(0.00048828125,-0.00048828125)">
   <path d="M 813,0 C 632,0 489,54 383,161 276,268 223,411 223,592 223,773 276,916 383,1023 489,1130 632,1184 813,1184 992,1184 1136,1130 1245,1023 1353,916 1407,772 1407,592 1407,412 1353,268 1245,161 1136,54 992,0 813,0 Z"/>
  </g>
  <g id="bullet-char-template-8226" transform="scale(0.00048828125,-0.00048828125)">
   <path d="M 346,457 C 273,457 209,483 155,535 101,586 74,649 74,723 74,796 101,859 155,911 209,963 273,989 346,989 419,989 480,963 531,910 582,859 608,796 608,723 608,648 583,586 532,535 482,483 420,457 346,457 Z"/>
  </g>
  <g id="bullet-char-template-8211" transform="scale(0.00048828125,-0.00048828125)">
   <path d="M -4,459 L 1135,459 1135,606 -4,606 -4,459 Z"/>
  </g>
  <g id="bullet-char-template-61548" transform="scale(0.00048828125,-0.00048828125)">
   <path d="M 173,740 C 173,903 231,1043 346,1159 462,1274 601,1332 765,1332 928,1332 1067,1274 1183,1159 1299,1043 1357,903 1357,740 1357,577 1299,437 1183,322 1067,206 928,148 765,148 601,148 462,206 346,322 231,437 173,577 173,740 Z"/>
  </g>
 </defs>
 <defs class="TextEmbeddedBitmaps"/>
 <g>
  <g id="id2" class="Master_Slide">
   <g id="bg-id2" class="Background"/>
   <g id="bo-id2" class="BackgroundObjects"/>
  </g>
 </g>
 <g class="SlideGroup">
  <g>
   <g id="container-id1">
    <g id="id1" class="Slide" clip-path="url(#presentation_clip_path)">
     <g class="Page">
      <g class="com.sun.star.drawing.CustomShape">
       <g id="id3">
        <rect class="BoundingBox" stroke="none" fill="none" x="1898" y="319" width="715" height="1053"/>
        <path fill="rgb(0,0,0)" stroke="none" d="M 2217,1370 L 1899,1208 2452,320 2611,401 2217,1370 Z"/>
        <path fill="none" stroke="rgb(0,0,0)" d="M 2217,1370 L 1899,1208 2452,320 2611,401 2217,1370 Z"/>
       </g>
      </g>
      <g class="com.sun.star.drawing.ClosedBezierShape">
       <g id="id4">
        <rect class="BoundingBox" stroke="none" fill="none" x="378" y="1124" width="1908" height="1659"/>
        <path fill="rgb(0,0,0)" stroke="none" d="M 379,2084 C 380,2099 380,2114 381,2129 383,2143 385,2156 387,2169 390,2181 392,2192 395,2204 398,2214 401,2223 405,2233 408,2241 411,2249 414,2256 417,2262 419,2268 422,2273 424,2277 426,2280 428,2283 429,2285 429,2286 430,2287 472,2329 515,2372 557,2414 633,2473 709,2533 785,2592 844,2626 912,2668 989,2694 1091,2719 1166,2744 1268,2770 1370,2795 1421,2770 1497,2770 1531,2761 1564,2753 1598,2744 1657,2668 1717,2592 1776,2516 1844,2423 1911,2329 1979,2236 2030,2143 2081,2050 2132,1957 2174,1847 2217,1737 2259,1627 2267,1576 2284,1526 2284,1449 2276,1424 2284,1424 2259,1398 2242,1381 2225,1364 2208,1347 2098,1279 1988,1212 1878,1144 1852,1119 1827,1119 1776,1144 1700,1170 1670,1206 1612,1241 1562,1293 1497,1347 1446,1398 1395,1474 1344,1551 1293,1627 1242,1686 1192,1754 1141,1805 1073,1856 1014,1906 938,1957 836,2008 811,2033 709,2059 608,2084 557,2076 481,2084 447,2084 413,2084 379,2084 Z"/>
        <path fill="none" stroke="rgb(0,0,0)" d="M 379,2084 C 380,2099 380,2114 381,2129 383,2143 385,2156 387,2169 390,2181 392,2192 395,2204 398,2214 401,2223 405,2233 408,2241 411,2249 414,2256 417,2262 419,2268 422,2273 424,2277 426,2280 428,2283 429,2285 429,2286 430,2287 L 557,2414 C 633,2473 709,2533 785,2592 844,2626 912,2668 989,2694 1091,2719 1166,2744 1268,2770 1370,2795 1421,2770 1497,2770 1531,2761 1564,2753 1598,2744 1657,2668 1717,2592 1776,2516 1844,2423 1911,2329 1979,2236 L 2132,1957 C 2174,1847 2217,1737 2259,1627 2267,1576 2284,1526 2284,1449 2276,1424 2284,1424 2259,1398 L 2208,1347 C 2098,1279 1988,1212 1878,1144 1852,1119 1827,1119 1776,1144 1700,1170 1670,1206 1612,1241 1562,1293 1497,1347 1446,1398 1395,1474 1344,1551 1293,1627 1242,1686 1192,1754 1141,1805 1073,1856 1014,1906 938,1957 836,2008 811,2033 709,2059 608,2084 557,2076 481,2084 L 379,2084 Z"/>
       </g>
      </g>
      <g class="com.sun.star.drawing.ClosedBezierShape">
       <g id="id5">
        <rect class="BoundingBox" stroke="none" fill="none" x="657" y="1371" width="1451" height="1172"/>
        <path fill="rgb(255,255,255)" stroke="none" d="M 785,2135 C 709,2160 656,2156 658,2160 660,2163 735,2287 785,2338 811,2363 811,2363 862,2338 912,2313 912,2313 989,2262 1052,2209 1062,2208 1065,2211 1083,2230 1087,2267 963,2440 1014,2465 1040,2490 1116,2516 1141,2516 1191,2515 1217,2490 1242,2465 1207,2502 1293,2389 1370,2287 1318,2364 1395,2262 1476,2160 1471,2160 1471,2160 1506,2176 1481,2265 1420,2414 1400,2464 1399,2463 1348,2541 1404,2541 1462,2541 1519,2541 1573,2541 1573,2541 1598,2516 1642,2462 1683,2413 1727,2358 1778,2292 1828,2224 1878,2157 1916,2090 1954,2023 1993,1957 2024,1877 2056,1798 2087,1719 2093,1683 2100,1646 2106,1609 2100,1591 2093,1573 2087,1555 2075,1542 2062,1530 2049,1518 1967,1469 1885,1421 1803,1372 1778,1372 1752,1372 1727,1372 1683,1396 1648,1417 1604,1442 1567,1479 1519,1518 1480,1555 1442,1609 1404,1665 1366,1719 1328,1762 1291,1805 1253,1847 1202,1884 1141,1945 1090,1982 1014,2033 1014,2033 963,2059 912,2084 862,2109 785,2135 Z"/>
        <path fill="none" stroke="rgb(255,255,255)" d="M 785,2135 C 709,2160 656,2156 658,2160 660,2163 735,2287 785,2338 811,2363 811,2363 862,2338 912,2313 912,2313 989,2262 1052,2209 1062,2208 1065,2211 1083,2230 1087,2267 963,2440 1014,2465 1040,2490 1116,2516 1141,2516 1191,2515 1217,2490 1242,2465 1207,2502 1293,2389 1370,2287 1318,2364 1395,2262 1476,2160 1471,2160 1471,2160 1506,2176 1481,2265 1420,2414 1400,2464 1399,2463 1348,2541 L 1519,2541 C 1573,2541 1573,2541 1598,2516 1642,2462 1683,2413 1727,2358 1778,2292 1828,2224 1878,2157 1916,2090 1954,2023 1993,1957 2024,1877 2056,1798 2087,1719 2093,1683 2100,1646 2106,1609 2100,1591 2093,1573 2087,1555 2075,1542 2062,1530 2049,1518 1967,1469 1885,1421 1803,1372 L 1727,1372 C 1683,1396 1648,1417 1604,1442 1567,1479 1519,1518 1480,1555 1442,1609 1404,1665 1366,1719 1328,1762 1291,1805 1253,1847 1202,1884 1141,1945 1090,1982 1014,2033 1014,2033 963,2059 912,2084 862,2109 785,2135 Z"/>
       </g>
      </g>
     </g>
    </g>
   </g>
  </g>
 </g>
</svg>