<?xml version="1.0" encoding="UTF-8" standalone="no"?>
<!DOCTYPE svg PUBLIC "-//W3C//DTD SVG 20010904//EN"
"http://www.w3.org/TR/2001/REC-SVG-20010904/DTD/svg10.dtd">
<!-- Created with Inkscape (http://www.inkscape.org/) -->
<svg
   id="svg548"
   sodipodi:version="0.32"
   width="400pt"
   height="400pt"
   sodipodi:docbase="/var/www/html/svg_gallery/svg/callouts"
   sodipodi:docname="cloud.svg"
   inkscape:version="0.38.1"
   xmlns="http://www.w3.org/2000/svg"
   xmlns:inkscape="http://www.inkscape.org/namespaces/inkscape"
   xmlns:sodipodi="http://sodipodi.sourceforge.net/DTD/sodipodi-0.dtd"
   xmlns:xlink="http://www.w3.org/1999/xlink">
  <defs
     id="defs550" />
  <sodipodi:namedview
     id="base"
     inkscape:zoom="0.77250000"
     inkscape:cx="200.00000"
     inkscape:cy="200.00000"
     inkscape:window-width="400"
     inkscape:window-height="500"
     inkscape:window-x="515"
     inkscape:window-y="24" />
  <path
     style="fill:#000000;fill-rule:evenodd;stroke:none;stroke-opacity:1;stroke-width:2.5;stroke-linejoin:miter;stroke-linecap:butt;fill-opacity:0.50000000;stroke-dasharray:none;"
     d="M 163.26321,64.542987 C 166.86021,64.542987 199.23721,40.560289 252.00021,38.161889 C 323.94821,29.767889 353.92721,76.534387 353.92721,76.534387 C 351.52921,82.530087 403.09121,39.360989 433.07021,42.958389 C 465.44721,47.754989 478.63821,62.144487 475.04021,92.122987 C 472.64221,111.30969 452.25621,119.70369 447.46021,129.29669 C 449.85821,134.09269 476.23921,149.68269 476.23921,191.65269 C 476.23921,233.62269 449.85821,256.40569 451.05721,256.40569 C 452.25621,256.40569 477.43821,298.37569 458.25221,323.55769 C 439.06621,348.73969 385.10421,324.75769 376.71021,319.96069 C 368.31621,322.35869 363.39014,367.43466 257.53347,372.23166 C 170.19765,372.23166 133.28421,339.14669 121.29321,334.34969 C 106.90321,343.94269 48.145414,357.13469 28.959014,321.15969 C 13.370204,275.59269 37.353114,264.79969 42.149614,256.40569 C 37.353114,245.61369 21.764214,227.62669 24.162514,194.05069 C 24.162514,150.88069 34.954814,129.29669 44.548014,122.10169 C 39.751414,112.50869 20.565114,74.135787 62.535014,50.153289 C 132.08521,32.166089 162.06421,65.742187 163.26321,64.542987 z "
     id="path835"
     sodipodi:nodetypes="cccccccccccccccccc" />
  <path
     style="fill:#ffffff;fill-rule:evenodd;stroke:black;stroke-opacity:1;stroke-width:2.5;stroke-linejoin:miter;stroke-linecap:butt;fill-opacity:1;stroke-dasharray:none;"
     d="M 158.28700,57.516300 C 161.88400,57.516300 194.26100,33.533600 247.02400,31.135200 C 318.97200,22.741200 348.95100,69.507700 348.95100,69.507700 C 346.55300,75.503400 398.11500,32.334300 428.09400,35.931700 C 460.47100,40.728300 473.66200,55.117800 470.06400,85.096300 C 467.66600,104.28300 447.28000,112.67700 442.48400,122.27000 C 444.88200,127.06600 471.26300,142.65600 471.26300,184.62600 C 471.26300,226.59600 444.88200,249.37900 446.08100,249.37900 C 447.28000,249.37900 472.46200,291.34900 453.27600,316.53100 C 434.09000,341.71300 380.12800,317.73100 371.73400,312.93400 C 363.34000,315.33200 358.41393,360.40797 252.55726,365.20497 C 165.22144,365.20497 128.30800,332.12000 116.31700,327.32300 C 101.92700,336.91600 43.169200,350.10800 23.982800,314.13300 C 8.3939900,268.56600 32.376900,257.77300 37.173400,249.37900 C 32.376900,238.58700 16.788000,220.60000 19.186300,187.02400 C 19.186300,143.85400 29.978600,122.27000 39.571800,115.07500 C 34.775200,105.48200 15.588900,67.109100 57.558800,43.126600 C 127.10900,25.139400 157.08800,58.715500 158.28700,57.516300 z "
     id="path598"
     sodipodi:nodetypes="cccccccccccccccccc" />
</svg>
