<?xml version="1.0" encoding="UTF-8" standalone="no"?>
<!-- Created with Inkscape (http://www.inkscape.org/) -->
<svg
   xmlns:dc="http://purl.org/dc/elements/1.1/"
   xmlns:cc="http://creativecommons.org/ns#"
   xmlns:rdf="http://www.w3.org/1999/02/22-rdf-syntax-ns#"
   xmlns:svg="http://www.w3.org/2000/svg"
   xmlns="http://www.w3.org/2000/svg"
   xmlns:sodipodi="http://sodipodi.sourceforge.net/DTD/sodipodi-0.dtd"
   xmlns:inkscape="http://www.inkscape.org/namespaces/inkscape"
   width="614.9306"
   height="268.07828"
   id="svg2503"
   sodipodi:version="0.32"
   inkscape:version="0.46"
   version="1.0"
   sodipodi:docname="fibonacci_algo_to_functional_level.svg"
   inkscape:output_extension="org.inkscape.output.svg.inkscape">
  <defs
     id="defs2505">
    <inkscape:perspective
       sodipodi:type="inkscape:persp3d"
       inkscape:vp_x="0 : 526.18109 : 1"
       inkscape:vp_y="0 : 1000 : 0"
       inkscape:vp_z="744.09448 : 526.18109 : 1"
       inkscape:persp3d-origin="372.04724 : 350.78739 : 1"
       id="perspective2511" />
  </defs>
  <sodipodi:namedview
     id="base"
     pagecolor="#ffffff"
     bordercolor="#666666"
     borderopacity="1.0"
     gridtolerance="10000"
     guidetolerance="10"
     objecttolerance="10"
     inkscape:pageopacity="0.0"
     inkscape:pageshadow="2"
     inkscape:zoom="2.4360471"
     inkscape:cx="307.4653"
     inkscape:cy="123.46451"
     inkscape:document-units="px"
     inkscape:current-layer="layer1"
     showgrid="false"
     inkscape:window-width="1599"
     inkscape:window-height="1125"
     inkscape:window-x="0"
     inkscape:window-y="25" />
  <metadata
     id="metadata2508">
    <rdf:RDF>
      <cc:Work
         rdf:about="">
        <dc:format>image/svg+xml</dc:format>
        <dc:type
           rdf:resource="http://purl.org/dc/dcmitype/StillImage" />
      </cc:Work>
    </rdf:RDF>
  </metadata>
  <g
     inkscape:label="Layer 1"
     inkscape:groupmode="layer"
     id="layer1"
     transform="translate(-161.96326,-597.81801)">
    <g
       id="g5326"
       transform="matrix(0.4977817,0,0,0.4977817,153.23487,627.15523)">
      <path
         sodipodi:nodetypes="cccccccccccccccccc"
         id="path835"
         d="M 163.26321,64.542987 C 166.86021,64.542987 199.23721,40.560289 252.00021,38.161889 C 323.94821,29.767889 353.92721,76.534387 353.92721,76.534387 C 351.52921,82.530087 403.09121,39.360989 433.07021,42.958389 C 465.44721,47.754989 478.63821,62.144487 475.04021,92.122987 C 472.64221,111.30969 452.25621,119.70369 447.46021,129.29669 C 449.85821,134.09269 476.23921,149.68269 476.23921,191.65269 C 476.23921,233.62269 449.85821,256.40569 451.05721,256.40569 C 452.25621,256.40569 477.43821,298.37569 458.25221,323.55769 C 439.06621,348.73969 385.10421,324.75769 376.71021,319.96069 C 368.31621,322.35869 363.39014,367.43466 257.53347,372.23166 C 170.19765,372.23166 133.28421,339.14669 121.29321,334.34969 C 106.90321,343.94269 48.145414,357.13469 28.959014,321.15969 C 13.370204,275.59269 37.353114,264.79969 42.149614,256.40569 C 37.353114,245.61369 21.764214,227.62669 24.162514,194.05069 C 24.162514,150.88069 34.954814,129.29669 44.548014,122.10169 C 39.751414,112.50869 20.565114,74.135787 62.535014,50.153289 C 132.08521,32.166089 162.06421,65.742187 163.26321,64.542987 z"
         style="fill:#000000;fill-opacity:0.5;fill-rule:evenodd;stroke:none;stroke-width:2.5;stroke-linecap:butt;stroke-linejoin:miter;stroke-dasharray:none;stroke-opacity:1" />
      <path
         sodipodi:nodetypes="cccccccccccccccccc"
         id="path598"
         d="M 158.287,57.5163 C 161.884,57.5163 194.261,33.5336 247.024,31.1352 C 318.972,22.7412 348.951,69.5077 348.951,69.5077 C 346.553,75.5034 398.115,32.3343 428.094,35.9317 C 460.471,40.7283 473.662,55.1178 470.064,85.0963 C 467.666,104.283 447.28,112.677 442.484,122.27 C 444.882,127.066 471.263,142.656 471.263,184.626 C 471.263,226.596 444.882,249.379 446.081,249.379 C 447.28,249.379 472.462,291.349 453.276,316.531 C 434.09,341.713 380.128,317.731 371.734,312.934 C 363.34,315.332 358.41393,360.40797 252.55726,365.20497 C 165.22144,365.20497 128.308,332.12 116.317,327.323 C 101.927,336.916 43.1692,350.108 23.9828,314.133 C 8.39399,268.566 32.3769,257.773 37.1734,249.379 C 32.3769,238.587 16.788,220.6 19.1863,187.024 C 19.1863,143.854 29.9786,122.27 39.5718,115.075 C 34.7752,105.482 15.5889,67.1091 57.5588,43.1266 C 127.109,25.1394 157.088,58.7155 158.287,57.5163 z"
         style="fill:#ffffff;fill-opacity:1;fill-rule:evenodd;stroke:#000000;stroke-width:2.5;stroke-linecap:butt;stroke-linejoin:miter;stroke-dasharray:none;stroke-opacity:1" />
    </g>
    <text
       xml:space="preserve"
       style="font-size:26.7701683px;font-style:normal;font-weight:normal;text-align:center;text-anchor:middle;fill:#000000;fill-opacity:1;stroke:none;stroke-width:1px;stroke-linecap:butt;stroke-linejoin:miter;stroke-opacity:1;font-family:Bitstream Vera Sans"
       x="270.44696"
       y="712.97015"
       id="text5330"><tspan
         sodipodi:role="line"
         id="tspan5332"
         x="270.44696"
         y="712.97015">FIBONACCI</tspan><tspan
         sodipodi:role="line"
         x="270.44696"
         y="746.43286"
         id="tspan5334">(C++)</tspan></text>
    <g
       id="g10227"
       transform="translate(142.59335,531.18038)">
      <rect
         y="73.082901"
         x="398.17078"
         height="94.699112"
         width="235.39851"
         id="rect5344"
         style="fill:#7d7d7d;fill-opacity:1;fill-rule:nonzero;stroke:#7d7d7d;stroke-width:1.46249461;stroke-miterlimit:4;stroke-dasharray:none;stroke-opacity:1" />
      <rect
         y="67.368881"
         x="383.80127"
         height="97.598068"
         width="239.96935"
         id="rect5346"
         style="opacity:1;fill:#ffffff;fill-opacity:1;fill-rule:nonzero;stroke:#000000;stroke-width:1.46249461;stroke-miterlimit:4;stroke-dasharray:none;stroke-opacity:1" />
    </g>
    <text
       xml:space="preserve"
       style="font-size:26.7701683px;font-style:normal;font-weight:normal;text-align:center;text-anchor:middle;fill:#000000;fill-opacity:1;stroke:none;stroke-width:1px;stroke-linecap:butt;stroke-linejoin:miter;stroke-opacity:1;font-family:Bitstream Vera Sans"
       x="647.28516"
       y="640.90094"
       id="text8259"><tspan
         sodipodi:role="line"
         id="tspan8261"
         x="647.28516"
         y="640.90094">FIBONACCI</tspan><tspan
         sodipodi:role="line"
         x="647.28516"
         y="674.36365"
         id="tspan8263">(Annotated C++)</tspan></text>
    <g
       id="g8265"
       transform="matrix(1.4181247,0,0,0.5996085,-70.10057,724.16658)">
      <rect
         y="77.215973"
         x="430.75528"
         height="157.93491"
         width="165.99281"
         id="rect8267"
         style="fill:#7d7d7d;fill-opacity:1;fill-rule:nonzero;stroke:#7d7d7d;stroke-width:1.58599997;stroke-miterlimit:4;stroke-dasharray:none;stroke-opacity:1" />
      <rect
         y="67.686386"
         x="420.62253"
         height="162.76965"
         width="169.21597"
         id="rect8269"
         style="fill:#ffffff;fill-opacity:1;fill-rule:nonzero;stroke:#000000;stroke-width:1.58599997;stroke-miterlimit:4;stroke-dasharray:none;stroke-opacity:1" />
    </g>
    <text
       xml:space="preserve"
       style="font-size:26.7701683px;font-style:normal;font-weight:normal;text-align:center;text-anchor:middle;fill:#000000;fill-opacity:1;stroke:none;stroke-width:1px;stroke-linecap:butt;stroke-linejoin:miter;stroke-opacity:1;font-family:Bitstream Vera Sans"
       x="646.36365"
       y="804.81738"
       id="text9244"><tspan
         sodipodi:role="line"
         id="tspan9246"
         x="646.36365"
         y="804.81738">Memory</tspan><tspan
         sodipodi:role="line"
         x="646.36365"
         y="838.28009"
         id="tspan9248" /></text>
    <rect
       style="fill:#ff0000;fill-opacity:1;fill-rule:nonzero;stroke:none;stroke-width:0.9599089;stroke-miterlimit:4;stroke-dasharray:none;stroke-opacity:1"
       id="rect9250"
       width="13.221132"
       height="27.215622"
       x="640.66809"
       y="714.63818" />
    <path
       sodipodi:type="star"
       style="fill:#ff0000;fill-opacity:1;fill-rule:nonzero;stroke:none;stroke-width:1.58599997;stroke-miterlimit:4;stroke-dasharray:none;stroke-opacity:1"
       id="path9252"
       sodipodi:sides="3"
       sodipodi:cx="505.20111"
       sodipodi:cy="176.30708"
       sodipodi:r1="31.765404"
       sodipodi:r2="15.882702"
       sodipodi:arg1="0.52278909"
       sodipodi:arg2="1.5699866"
       inkscape:flatsided="true"
       inkscape:rounded="0"
       inkscape:randomized="0"
       d="M 532.72361,192.16751 L 477.70433,192.21205 L 505.17539,144.54169 L 532.72361,192.16751 z"
       transform="matrix(0.5815389,0,0,0.458315,353.47705,629.61811)" />
    <path
       sodipodi:type="star"
       style="fill:#ff0000;fill-opacity:1;fill-rule:nonzero;stroke:none;stroke-width:1.58599997;stroke-miterlimit:4;stroke-dasharray:none;stroke-opacity:1"
       id="path9256"
       sodipodi:sides="3"
       sodipodi:cx="505.20111"
       sodipodi:cy="176.30708"
       sodipodi:r1="31.765404"
       sodipodi:r2="15.882702"
       sodipodi:arg1="0.52278909"
       sodipodi:arg2="1.5699866"
       inkscape:flatsided="true"
       inkscape:rounded="0"
       inkscape:randomized="0"
       d="M 532.72361,192.16751 L 477.70433,192.21205 L 505.17539,144.54169 L 532.72361,192.16751 z"
       transform="matrix(-0.5815389,0,0,-0.458315,941.08021,829.43948)" />
    <text
       xml:space="preserve"
       style="font-size:12px;font-style:normal;font-weight:normal;fill:#000000;fill-opacity:1;stroke:none;stroke-width:1px;stroke-linecap:butt;stroke-linejoin:miter;stroke-opacity:1;font-family:Bitstream Vera Sans"
       x="661.70483"
       y="733.07422"
       id="text10243"><tspan
         sodipodi:role="line"
         id="tspan10245"
         x="661.70483"
         y="733.07422">read/write</tspan></text>
    <g
       id="g2564"
       transform="matrix(0,2.143534,-1.8535804,0,1856.8135,-285.88533)"
       style="fill:#0000ff">
      <rect
         y="749.33838"
         x="467.51343"
         height="27.215622"
         width="13.221132"
         id="rect2558"
         style="fill:#0000ff;fill-opacity:1;fill-rule:nonzero;stroke:none;stroke-width:0.9599089;stroke-miterlimit:4;stroke-dasharray:none;stroke-opacity:1" />
      <path
         transform="matrix(0.5815389,0,0,0.458315,180.32239,664.31828)"
         d="M 532.72361,192.16751 L 477.70433,192.21205 L 505.17539,144.54169 L 532.72361,192.16751 z"
         inkscape:randomized="0"
         inkscape:rounded="0"
         inkscape:flatsided="true"
         sodipodi:arg2="1.5699866"
         sodipodi:arg1="0.52278909"
         sodipodi:r2="15.882702"
         sodipodi:r1="31.765404"
         sodipodi:cy="176.30708"
         sodipodi:cx="505.20111"
         sodipodi:sides="3"
         id="path2560"
         style="fill:#0000ff;fill-opacity:1;fill-rule:nonzero;stroke:none;stroke-width:1.58599997;stroke-miterlimit:4;stroke-dasharray:none;stroke-opacity:1"
         sodipodi:type="star" />
    </g>
  </g>
</svg>
