<?xml version="1.0" encoding="UTF-8" standalone="no"?>
<!-- Created with Inkscape (http://www.inkscape.org/) -->
<svg
   xmlns:dc="http://purl.org/dc/elements/1.1/"
   xmlns:cc="http://creativecommons.org/ns#"
   xmlns:rdf="http://www.w3.org/1999/02/22-rdf-syntax-ns#"
   xmlns:svg="http://www.w3.org/2000/svg"
   xmlns="http://www.w3.org/2000/svg"
   xmlns:sodipodi="http://sodipodi.sourceforge.net/DTD/sodipodi-0.dtd"
   xmlns:inkscape="http://www.inkscape.org/namespaces/inkscape"
   width="389.76376"
   height="389.76376"
   id="svg2453"
   sodipodi:version="0.32"
   inkscape:version="0.46"
   version="1.0"
   sodipodi:docname="logo_unisim.svg"
   inkscape:output_extension="org.inkscape.output.svg.inkscape">
  <defs
     id="defs2455">
    <inkscape:perspective
       sodipodi:type="inkscape:persp3d"
       inkscape:vp_x="0 : 526.18109 : 1"
       inkscape:vp_y="0 : 1000 : 0"
       inkscape:vp_z="744.09448 : 526.18109 : 1"
       inkscape:persp3d-origin="372.04724 : 350.78739 : 1"
       id="perspective2461" />
  </defs>
  <sodipodi:namedview
     id="base"
     pagecolor="#ffffff"
     bordercolor="#666666"
     borderopacity="1.0"
     gridtolerance="10000"
     guidetolerance="10"
     objecttolerance="10"
     inkscape:pageopacity="0.0"
     inkscape:pageshadow="2"
     inkscape:zoom="0.35"
     inkscape:cx="375"
     inkscape:cy="520"
     inkscape:document-units="px"
     inkscape:current-layer="layer1"
     showgrid="false"
     units="mm"
     inkscape:window-width="640"
     inkscape:window-height="674"
     inkscape:window-x="325"
     inkscape:window-y="0" />
  <metadata
     id="metadata2458">
    <rdf:RDF>
      <cc:Work
         rdf:about="">
        <dc:format>image/svg+xml</dc:format>
        <dc:type
           rdf:resource="http://purl.org/dc/dcmitype/StillImage" />
      </cc:Work>
    </rdf:RDF>
  </metadata>
  <g
     inkscape:label="Layer 1"
     inkscape:groupmode="layer"
     id="layer1">
    <g
       style="overflow:visible"
       id="g22009"
       inkscape:export-filename="/local/home/gmouchard/Download/unisim.png"
       inkscape:export-xdpi="300"
       inkscape:export-ydpi="300"
       transform="translate(14.523573,39.535769)"><path
   inkscape:export-ydpi="300"
   inkscape:export-xdpi="300"
   inkscape:export-filename="/local/home/gmouchard/Download/unisim.png"
   style="fill:#000000"
   id="path10"
   d="M 302.71907,256.80779 C 291.94466,259.69304 280.44759,260.62077 269.98372,264.18913 C 287.70638,248.99333 286.69466,225.48064 298.51888,207.58318 C 302.28548,202.51579 305.39876,197.20427 309.78938,192.39568 C 302.597,206.82341 305.71614,225.54216 297.45345,239.54314 C 294.27278,245.10466 289.72396,250.50017 284.69368,254.86833 C 286.33724,254.80681 287.77571,253.38396 289.22103,252.43376 C 302.64192,239.04118 320.17513,235.29607 334.69271,224.41521 C 340.50813,219.78142 345.83431,213.70915 348.39095,207.14177 C 345.64388,229.3615 323.53841,250.18767 302.71907,256.80779 L 302.71907,256.80779 z" />
<path
   inkscape:export-ydpi="300"
   inkscape:export-xdpi="300"
   inkscape:export-filename="/local/home/gmouchard/Download/unisim.png"
   style="fill:#000000"
   id="path12"
   d="M 351.06868,166.84392 C 344.50228,176.18767 336.55892,184.88591 330.49251,194.382 C 331.16927,186.86345 332.05989,177.61833 329.13118,170.49626 C 324.05599,155.15935 319.597,139.58708 318.15853,122.75505 L 318.35677,116.31853 C 322.1761,133.50798 339.06185,145.32439 337.99642,164.60564 C 338.38313,169.27849 336.93782,173.25114 336.06282,177.36052 L 336.35286,177.66423 L 337.1136,176.81169 C 339.61751,167.35368 340.88118,157.40837 344.77474,148.58415 C 350.30794,135.88591 357.21712,123.07048 354.40169,107.73845 C 362.81771,125.81462 360.2679,149.96599 351.06868,166.84392 L 351.06868,166.84392 z" />
<path
   inkscape:export-ydpi="300"
   inkscape:export-xdpi="300"
   inkscape:export-filename="/local/home/gmouchard/Download/unisim.png"
   style="fill:#000000"
   id="path14"
   d="M 340.70442,69.456223 C 351.77669,84.461593 354.20345,108.37419 346.13899,125.58611 C 343.13313,132.88005 341.01009,140.65251 339.82942,148.72575 C 339.26595,147.33318 339.13704,145.46111 338.63411,143.90935 C 334.22981,127.06169 318.29622,115.05486 311.74349,99.170583 C 309.66536,93.976243 307.89388,88.609053 306.91145,82.970383 C 313.91341,95.920583 331.16927,102.60954 335.87239,116.88103 C 337.79915,120.4904 337.69075,125.00017 338.88606,128.88103 C 339.13704,128.88103 339.38802,128.6945 339.38802,128.43962 C 337.31771,113.73845 337.94954,98.352223 339.94466,83.833663 C 339.82942,75.969413 339.06185,68.340993 334.69271,62.253593 C 337.49446,63.885913 338.75618,67.021163 340.70442,69.456223 L 340.70442,69.456223 z" />
<path
   inkscape:export-ydpi="300"
   inkscape:export-xdpi="300"
   inkscape:export-filename="/local/home/gmouchard/Download/unisim.png"
   style="fill:#000000"
   id="path16"
   d="M 332.89778,66.575853 C 335.80599,79.724783 331.55794,92.530443 334.22981,105.80583 L 334.13021,105.92009 C 326.97688,91.853683 311.79036,85.215013 301.34114,73.956713 C 295.28548,67.276053 292.65267,59.133963 291.13802,50.512863 C 297.12532,64.947433 313.28157,68.128103 322.55696,80.291673 C 325.66048,83.095873 326.67317,86.980643 328.67415,90.160813 L 329.0013,89.844893 C 323.66731,78.458183 321.8802,65.643723 318.15853,53.499683 C 316.29524,48.237473 312.597,43.067063 307.63509,39.749193 C 319.81087,42.237473 330.3636,54.948903 332.89778,66.575853 L 332.89778,66.575853 z" />
<path
   inkscape:export-ydpi="300"
   inkscape:export-xdpi="300"
   inkscape:export-filename="/local/home/gmouchard/Download/unisim.png"
   style="fill:#000000"
   id="path18"
   d="M 300.34505,36.420093 C 309.51497,44.627123 313.66243,55.253593 316.34017,66.263843 L 317.85481,69.760423 C 304.54524,60.188163 292.45442,47.320483 283.9554,33.730643 L 273.57552,23.229663 C 282.70052,27.098803 292.53841,29.408373 300.34505,36.420093 L 300.34505,36.420093 z" />
<path
   inkscape:export-ydpi="300"
   inkscape:export-xdpi="300"
   inkscape:export-filename="/local/home/gmouchard/Download/unisim.png"
   style="fill:#000000;fill-opacity:1"
   id="path20"
   d="M 90.138993,24.972343 C 80.938803,33.037773 74.557943,43.237963 67.732743,52.749683 C 61.614583,60.324873 53.788413,65.319993 46.852863,71.834153 C 50.597003,64.072433 50.733723,54.800953 56.044273,47.671073 C 63.600913,34.487473 77.613603,29.849293 90.138993,24.972343 L 90.138993,24.972343 z" />
<path
   inkscape:export-ydpi="300"
   inkscape:export-xdpi="300"
   inkscape:export-filename="/local/home/gmouchard/Download/unisim.png"
   style="fill:#000000;fill-opacity:1"
   id="path22"
   d="M 39.825523,53.058273 C 44.300133,47.495773 49.972983,43.630053 56.356773,41.997733 C 43.961263,50.512863 44.767903,65.772633 40.838213,78.458183 C 39.585283,83.149093 37.409503,87.470873 36.325523,92.279463 L 36.640953,92.530443 C 38.703453,87.094413 42.328453,81.958183 46.852863,77.522633 C 55.656573,69.395683 68.680013,64.330733 72.994463,52.308763 C 72.797203,69.014823 58.860673,82.148613 45.525713,91.537773 C 40.026693,96.361983 34.723963,101.86003 31.695633,108.06169 C 31.398763,103.84685 32.318683,99.614913 32.018883,95.099783 C 30.568683,80.516283 29.514973,63.870773 39.825523,53.058273 L 39.825523,53.058273 z" />
<path
   inkscape:export-ydpi="300"
   inkscape:export-xdpi="300"
   inkscape:export-filename="/local/home/gmouchard/Download/unisim.png"
   style="fill:#000000;fill-opacity:1"
   id="path24"
   d="M 14.745443,102.92595 C 14.372393,88.147633 20.506183,76.084153 29.149743,65.072923 C 29.400713,64.947433 29.579423,64.696463 29.902673,64.757003 C 20.388023,79.215503 28.259113,97.427413 27.825523,113.86736 L 26.570633,130.69939 C 26.757163,130.82146 26.757163,131.32732 27.198563,131.13298 C 27.761063,129.257 27.883133,127.25212 28.259113,125.32243 C 30.500323,111.74529 42.291343,102.1115 52.590173,92.728683 C 54.789383,90.274583 56.733723,87.782883 57.863603,84.903003 C 57.022783,91.663253 54.903643,98.481613 52.098963,104.73357 C 44.083333,120.3654 29.275713,133.19157 26.570633,151.08806 C 25.258133,133.93767 13.581383,121.1154 14.745443,102.92595 L 14.745443,102.92595 z" />
<path
   inkscape:export-ydpi="300"
   inkscape:export-xdpi="300"
   inkscape:export-filename="/local/home/gmouchard/Download/unisim.png"
   style="fill:#000000;fill-opacity:1"
   id="path26"
   d="M 7.5472032,123.94157 C 8.6126332,119.3195 9.4270832,114.5363 11.438803,110.29509 C 7.6272832,129.8322 20.767903,143.90935 25.078453,160.84392 C 26.882163,167.1779 27.323563,173.98064 29.902673,179.924 C 30.142903,180.05388 30.351883,179.8029 30.500323,179.61247 C 24.082353,161.62321 33.347003,144.90642 42.656573,130.82146 C 44.920243,127.00505 46.224933,122.75505 47.350913,118.36833 C 48.340173,126.50993 46.281573,135.88591 45.098963,144.33903 C 42.835283,155.09489 39.456383,165.29509 36.514973,175.73161 C 34.579423,182.2531 35.088213,189.61052 36.082353,196.44353 L 35.149743,195.69841 C 28.324543,183.11247 14.809893,173.29607 10.796223,159.54607 C 7.4934932,148.58415 5.2981732,135.88591 7.5472032,123.94157 L 7.5472032,123.94157 z" />
<path
   inkscape:export-ydpi="300"
   inkscape:export-xdpi="300"
   inkscape:export-filename="/local/home/gmouchard/Download/unisim.png"
   style="fill:#000000"
   id="path28"
   d="M 6.9309932,162.09978 C 8.4339232,182.80779 30.702473,193.75017 41.024743,210.89372 C 43.467123,214.40153 45.586263,218.28239 48.849933,221.21892 C 48.340173,219.01286 46.281573,217.15642 45.525713,214.89665 C 41.914383,207.70622 40.597983,199.13786 41.466143,190.44743 C 42.466143,179.87029 46.902673,170.05486 45.209313,158.92986 C 54.279623,178.4865 51.524743,202.89665 56.596033,224.08806 C 57.924153,228.72282 60.606773,232.8615 62.364583,237.29118 C 43.728843,224.5988 18.317713,212.52263 10.050133,189.26091 C 6.5657532,181.2404 6.1770832,171.31071 6.9309932,162.09978 L 6.9309932,162.09978 z" />
<path
   inkscape:export-ydpi="300"
   inkscape:export-xdpi="300"
   inkscape:export-filename="/local/home/gmouchard/Download/unisim.png"
   style="fill:#000000"
   id="path30"
   d="M 18.062823,209.65349 C 28.453453,233.15935 54.476883,235.10661 71.925133,249.42009 C 75.136063,252.26579 78.500323,254.68571 82.125323,256.37419 L 82.311853,256.18474 C 78.305993,252.56267 73.672203,248.43767 70.867513,243.74333 C 60.655603,229.54411 64.247393,209.65349 56.596033,194.382 C 63.548173,202.69841 69.870443,211.34294 74.067713,220.77751 C 80.310873,236.17888 82.696613,253.57439 97.142903,265.21648 C 81.509113,260.06413 63.193683,261.50359 49.394853,251.87712 C 34.328453,242.61736 20.882163,226.9113 18.062823,209.65349 L 18.062823,209.65349 z" />
<path
   inkscape:export-ydpi="300"
   inkscape:export-xdpi="300"
   inkscape:export-filename="/local/home/gmouchard/Download/unisim.png"
   style="fill:#000000"
   id="path32"
   d="M 44.767903,253.50505 C 61.428063,272.4528 88.650713,266.13054 110.8431,271.08952 C 113.97786,271.51726 116.847,272.77312 120.16927,272.26335 C 117.52376,270.58952 113.85286,270.77116 110.96517,269.24968 C 93.569663,263.13835 91.017903,244.30583 81.574543,231.60661 C 93.638993,239.61833 103.78157,250.424 114.91146,260.89421 C 122.91146,267.90202 132.54134,271.1364 142.68782,273.1989 C 140.24935,274.08952 137.05306,273.84538 134.43587,274.53093 C 116.20735,279.01335 95.955403,286.33952 76.624353,279.78093 C 64.056963,275.8239 51.091143,265.8864 44.767903,253.50505 L 44.767903,253.50505 z" />
<path
   inkscape:export-ydpi="300"
   inkscape:export-xdpi="300"
   inkscape:export-filename="/local/home/gmouchard/Download/unisim.png"
   style="fill:#000000"
   id="path34"
   d="M 270.88997,297.67155 C 252.11653,304.67741 232.52376,297.35124 217.86067,286.2321 C 211.92415,282.45866 206.69075,277.02507 199.01204,277.50554 C 196.22688,277.4528 193.54134,277.58952 191.17415,278.27312 C 205.41927,284.90202 218.65169,294.0407 230.75032,305.7282 C 228.71126,308.05632 226.07063,310.23405 223.58333,312.24187 C 211.92415,299.67937 199.01204,287.58757 184.55501,280.52507 C 181.72396,280.89226 179.0306,282.59538 176.47786,283.96648 C 164.70833,291.40788 153.07063,300.98015 144.32063,312.6989 L 136.80208,306.48991 C 148.80208,294.35124 162.07552,284.90202 176.59603,278.15202 C 162.32747,273.63249 153.01399,285.58562 142.18294,291.6657 C 129.56185,300.4782 111.41048,304.61687 96.157553,298.53679 C 87.954423,295.42546 80.007163,290.84343 74.067713,283.39616 C 86.071613,291.6657 103.94954,292.53288 117.60091,287.16179 C 135.91927,279.21648 154.95442,269.14421 177.03743,273.96062 C 180.48372,274.02116 183.83235,277.4528 187.08821,274.53093 C 203.5013,270.26921 222.08333,273.1989 236.21419,280.70085 L 250.77864,286.53874 C 264.31575,291.5446 281.81771,290.15984 293.42122,281.91179 C 287.4554,289.33757 279.30599,294.65788 270.88997,297.67155 L 270.88997,297.67155 z" />
<path
   inkscape:export-ydpi="300"
   inkscape:export-xdpi="300"
   inkscape:export-filename="/local/home/gmouchard/Download/unisim.png"
   style="fill:#000000"
   id="path36"
   d="M 291.00813,278.27312 C 269.93001,286.2321 248.72493,276.46257 228.52864,273.1989 L 224.63997,272.70476 L 224.63997,272.58171 C 234.2972,270.3903 243.67122,267.5153 251.35774,260.57585 C 262.67903,249.69353 272.75325,238.49236 285.32552,229.91716 C 276.00228,241.87126 275.01399,258.8864 259.61263,266.57195 C 255.8011,269.06609 250.99056,269.50749 247.05696,271.39616 C 252.66634,271.51726 257.80208,269.50749 263.35677,268.94499 C 284.00911,265.7028 307.63509,269.02898 322.12337,251.43571 C 316.74446,263.69499 303.27376,273.96062 291.00813,278.27312 L 291.00813,278.27312 z" />
<path
   inkscape:export-ydpi="300"
   inkscape:export-xdpi="300"
   inkscape:export-filename="/local/home/gmouchard/Download/unisim.png"
   style="fill:#000000"
   id="path38"
   d="M 329.30599,218.96696 C 320.98177,224.41521 312.54427,229.46794 304.54524,235.66228 L 304.54524,234.90153 C 316.7972,214.53923 310.80794,186.56657 318.35677,164.15739 L 321.1722,156.65056 C 319.597,170.61052 325.66048,182.43571 325.2347,196.44353 C 324.80892,204.90544 322.0472,212.40837 317.60384,219.16521 L 318.35677,219.16521 C 324.3597,211.28142 329.0472,202.89665 336.06282,195.38689 C 346.95247,184.88591 358.02376,174.11833 359.45345,159.54607 C 363.15169,183.87321 349.5013,205.1945 329.30599,218.96696 L 329.30599,218.96696 z" />
<polygon
   inkscape:export-ydpi="300"
   inkscape:export-xdpi="300"
   inkscape:export-filename="/local/home/gmouchard/Download/unisim.png"
   transform="translate(-266.66667,-137.30159)"
   style="fill:#000000;fill-rule:evenodd"
   id="polygon42"
   points="448.11182,303.25244 451.88867,303.25244 451.88867,398.07471 448.11182,398.07471 448.11182,303.25244 "
   clip-rule="evenodd" />
<polygon
   inkscape:export-ydpi="300"
   inkscape:export-xdpi="300"
   inkscape:export-filename="/local/home/gmouchard/Download/unisim.png"
   transform="translate(-266.66667,-137.30159)"
   style="fill:#000000;fill-rule:evenodd"
   id="polygon44"
   points="427.60938,293.93945 430.27734,296.61084 363.17578,363.60986 360.50781,360.93652 427.60938,293.93945 "
   clip-rule="evenodd" />
<polygon
   inkscape:export-ydpi="300"
   inkscape:export-xdpi="300"
   inkscape:export-filename="/local/home/gmouchard/Download/unisim.png"
   transform="translate(-266.66667,-137.30159)"
   style="fill:#000000;fill-rule:evenodd"
   id="polygon46"
   points="421.19531,274.18604 421.18945,277.9624 326.36719,277.84912 326.37109,274.07227 421.19531,274.18604 "
   clip-rule="evenodd" />
<polygon
   inkscape:export-ydpi="300"
   inkscape:export-xdpi="300"
   inkscape:export-filename="/local/home/gmouchard/Download/unisim.png"
   transform="translate(-266.66667,-137.30159)"
   style="fill:#000000;fill-rule:evenodd"
   id="polygon48"
   points="430.19775,255.89795 427.52588,258.56738 360.48535,191.50781 363.15674,188.83838 430.19775,255.89795 "
   clip-rule="evenodd" />
<polygon
   inkscape:export-ydpi="300"
   inkscape:export-xdpi="300"
   inkscape:export-filename="/local/home/gmouchard/Download/unisim.png"
   transform="translate(-266.66667,-137.30159)"
   style="fill:#000000;fill-rule:evenodd"
   id="polygon50"
   points="451.84717,248.10986 448.07031,248.10693 448.15723,153.28271 451.93408,153.28662 451.84717,248.10986 "
   clip-rule="evenodd" />
<polygon
   inkscape:export-ydpi="300"
   inkscape:export-xdpi="300"
   inkscape:export-filename="/local/home/gmouchard/Download/unisim.png"
   transform="translate(-266.66667,-137.30159)"
   style="fill:#000000;fill-rule:evenodd"
   id="polygon52"
   points="470.82471,257.15527 468.15674,254.48145 535.29688,187.52148 537.96484,190.19482 470.82471,257.15527 "
   clip-rule="evenodd" />
<polygon
   inkscape:export-ydpi="300"
   inkscape:export-xdpi="300"
   inkscape:export-filename="/local/home/gmouchard/Download/unisim.png"
   transform="translate(-266.66667,-137.30159)"
   style="fill:#000000;fill-rule:evenodd"
   id="polygon54"
   points="478.14746,278.25928 478.14355,274.48291 572.96484,274.36377 572.97168,278.14014 478.14746,278.25928 "
   clip-rule="evenodd" />
<polygon
   inkscape:export-ydpi="300"
   inkscape:export-xdpi="300"
   inkscape:export-filename="/local/home/gmouchard/Download/unisim.png"
   transform="translate(-266.66667,-137.30159)"
   style="fill:#000000;fill-rule:evenodd"
   id="polygon56"
   points="467.19922,297.55908 469.86719,294.88525 536.97363,361.87891 534.30566,364.55225 467.19922,297.55908 "
   clip-rule="evenodd" />
<path
   inkscape:export-ydpi="300"
   inkscape:export-xdpi="300"
   inkscape:export-filename="/local/home/gmouchard/Download/unisim.png"
   style="fill:#000000;fill-rule:evenodd"
   id="path58"
   d="M 218.69661,43.882003 C 270.92317,63.403983 297.46517,121.632 277.94271,173.85564 C 258.42024,226.07927 200.19222,252.62175 147.97054,233.09929 C 95.744953,213.57829 69.206383,155.35124 88.724933,103.12663 C 108.24788,50.902023 166.47493,24.361503 218.69661,43.882003 L 218.69661,43.882003 z M 217.16829,47.976733 C 267.13118,66.653493 292.52376,122.3615 273.84895,172.32487 C 255.17317,222.28972 199.46175,247.68132 149.49935,229.00456 C 99.536453,210.32976 74.144853,154.62077 92.819663,104.65691 C 111.49642,54.693533 167.2054,29.300953 217.16829,47.976733 L 217.16829,47.976733 z"
   clip-rule="evenodd" />
<path
   inkscape:export-ydpi="300"
   inkscape:export-xdpi="300"
   inkscape:export-filename="/local/home/gmouchard/Download/unisim.png"
   style="fill:#000000;fill-rule:evenodd"
   id="path60"
   d="M 210.59505,65.559743 C 250.85579,80.608573 271.31282,125.4948 256.26692,165.75359 C 241.21712,206.01189 196.32845,226.47136 156.07259,211.42351 C 115.81624,196.37566 95.354813,151.48747 110.40267,111.22917 C 125.45052,70.971363 170.3387,50.511403 210.59505,65.559743 L 210.59505,65.559743 z M 209.05892,69.677903 C 247.04134,83.876143 266.34798,126.23015 252.14974,164.2155 C 237.95149,202.20134 195.59456,221.50652 157.61263,207.30632 C 119.62679,193.10808 100.31966,150.75359 114.51985,112.76872 C 128.72005,74.782883 171.07259,55.477713 209.05892,69.677903 L 209.05892,69.677903 z"
   clip-rule="evenodd" />
<path
   inkscape:export-ydpi="300"
   inkscape:export-xdpi="300"
   inkscape:export-filename="/local/home/gmouchard/Download/unisim.png"
   style="fill:#000000;fill-rule:evenodd"
   id="path62"
   d="M 202.73519,86.584643 C 231.38997,97.295093 245.95149,129.24187 235.24251,157.89421 C 224.52864,186.54607 192.58235,201.10954 163.93196,190.39812 C 135.27815,179.68718 120.71663,147.74089 131.42806,119.08904 C 142.13899,90.437183 174.08528,75.874683 202.73519,86.584643 L 202.73519,86.584643 z M 201.32747,90.353203 C 227.90071,100.2863 241.40657,129.91374 231.47298,156.4865 C 221.53841,183.05876 191.91243,196.56267 165.33968,186.62956 C 138.76741,176.69792 125.26351,147.0695 135.19515,120.49675 C 145.12825,93.925463 174.75472,80.420583 201.32747,90.353203 L 201.32747,90.353203 z"
   clip-rule="evenodd" />
<path
   inkscape:export-ydpi="300"
   inkscape:export-xdpi="300"
   inkscape:export-filename="/local/home/gmouchard/Download/unisim.png"
   style="fill:#000000;fill-rule:evenodd"
   id="path64"
   d="M 193.89534,110.23503 C 209.49349,116.0656 217.42122,133.45573 211.59017,149.05437 C 205.75911,164.65056 188.37044,172.57878 172.77181,166.74724 C 157.17366,160.91765 149.24739,143.52751 155.07698,127.92888 C 160.90853,112.33171 178.30062,104.40446 193.89534,110.23503 L 193.89534,110.23503 z M 192.37044,114.31169 C 205.72103,119.30095 212.50228,134.18327 207.51497,147.53093 C 202.52327,160.8781 187.64388,167.66081 174.2972,162.67155 C 160.94808,157.6823 154.16536,142.80095 159.15267,129.4528 C 164.14388,116.10515 179.02718,109.32195 192.37044,114.31169 L 192.37044,114.31169 z"
   clip-rule="evenodd" />
<path
   inkscape:export-ydpi="300"
   inkscape:export-xdpi="300"
   inkscape:export-filename="/local/home/gmouchard/Download/unisim.png"
   style="fill:#000000;fill-rule:evenodd"
   id="path66"
   d="M 242.24642,28.905443 C 303.33138,62.521163 326.51692,138.89861 293.99544,199.38786 C 261.47786,259.87956 185.50569,281.69206 124.42122,248.07683 C 63.337243,214.46208 40.151203,138.08366 72.672693,77.593433 C 105.19222,17.102223 181.16145,-4.7097874 242.24642,28.905443 L 242.24642,28.905443 z M 240.10872,32.885423 C 298.97591,65.279953 321.31771,138.88249 289.97688,197.1779 C 258.63997,255.47136 185.4261,276.49284 126.56136,244.09782 C 67.692713,211.70134 45.350913,138.0988 76.691243,79.804373 C 108.02815,21.509933 181.24104,0.48991263 240.10872,32.885423 L 240.10872,32.885423 z"
   clip-rule="evenodd" />
<text
   inkscape:export-ydpi="300"
   inkscape:export-xdpi="300"
   inkscape:export-filename="/local/home/gmouchard/Download/unisim.png"
   id="text8304"
   y="129.40797"
   x="62.412586"
   style="font-size:89.57304382px;font-style:normal;font-weight:bold;fill:#aa0000;fill-opacity:1;stroke:#000000;stroke-width:2.20406103;stroke-linecap:butt;stroke-linejoin:miter;stroke-miterlimit:4;stroke-dasharray:none;stroke-opacity:1;font-family:Bitstream Vera Sans"
   xml:space="preserve"><tspan
     style="stroke-width:2.20406103"
     y="129.40797"
     x="62.412586"
     id="tspan8306"
     sodipodi:role="line">U</tspan></text>

<text
   inkscape:export-ydpi="300"
   inkscape:export-xdpi="300"
   inkscape:export-filename="/local/home/gmouchard/Download/unisim.png"
   transform="scale(1,-1)"
   id="text9283"
   y="-7.2429833"
   x="148.02425"
   style="font-size:88.53933716px;font-style:normal;font-weight:bold;fill:#aa0000;fill-opacity:1;stroke:#000000;stroke-width:2.17862535;stroke-linecap:butt;stroke-linejoin:miter;stroke-miterlimit:4;stroke-dasharray:none;stroke-opacity:1;font-family:Bitstream Vera Sans"
   xml:space="preserve"><tspan
     style="stroke-width:2.17862535"
     y="-7.2429833"
     x="148.02425"
     id="tspan9285"
     sodipodi:role="line">U</tspan></text>

<text
   inkscape:export-ydpi="300"
   inkscape:export-xdpi="300"
   inkscape:export-filename="/local/home/gmouchard/Download/unisim.png"
   id="text9287"
   y="129.64107"
   x="257.22916"
   style="font-size:85.69071198px;font-style:normal;font-weight:bold;fill:#aa0000;fill-opacity:1;stroke:#000000;stroke-width:2.10853124;stroke-linecap:butt;stroke-linejoin:miter;stroke-miterlimit:4;stroke-dasharray:none;stroke-opacity:1;font-family:Bitstream Vera Sans"
   xml:space="preserve"><tspan
     style="stroke-width:2.10853124"
     y="129.64107"
     x="257.22916"
     id="tspan9289"
     sodipodi:role="line">I</tspan></text>

<text
   inkscape:export-ydpi="300"
   inkscape:export-xdpi="300"
   inkscape:export-filename="/local/home/gmouchard/Download/unisim.png"
   id="text10260"
   y="204.08025"
   x="67.935295"
   style="font-size:82.1625824px;font-style:normal;font-weight:bold;fill:#aa0000;fill-opacity:1;stroke:#000000;stroke-width:2.02171707;stroke-linecap:butt;stroke-linejoin:miter;stroke-miterlimit:4;stroke-dasharray:none;stroke-opacity:1;font-family:Bitstream Vera Sans"
   xml:space="preserve"><tspan
     style="stroke-width:2.02171707"
     y="204.08025"
     x="67.935295"
     id="tspan10262"
     sodipodi:role="line">S</tspan></text>

<text
   inkscape:export-ydpi="300"
   inkscape:export-xdpi="300"
   inkscape:export-filename="/local/home/gmouchard/Download/unisim.png"
   id="text12206"
   y="247.47835"
   x="167.11333"
   style="font-size:87.79697418px;font-style:normal;font-weight:bold;fill:#aa0000;fill-opacity:1;stroke:#000000;stroke-width:2.16035867;stroke-linecap:butt;stroke-linejoin:miter;stroke-miterlimit:4;stroke-dasharray:none;stroke-opacity:1;font-family:Bitstream Vera Sans"
   xml:space="preserve"><tspan
     style="stroke-width:2.16035867"
     y="247.47835"
     x="167.11333"
     id="tspan12208"
     sodipodi:role="line">I</tspan></text>

<path
   inkscape:export-ydpi="300"
   inkscape:export-xdpi="300"
   inkscape:export-filename="/local/home/gmouchard/Download/unisim.png"
   id="text18097"
   d="M 258.81834,143.23161 C 250.46407,143.23161 244.25949,145.48637 240.17236,149.96029 C 236.08518,154.43421 234.04063,161.2468 234.04064,170.39671 L 234.04064,209.14139 L 248.86824,209.14139 L 248.86824,170.39671 C 248.86822,165.05684 249.63922,161.22011 251.18157,158.911 C 252.74957,156.63074 255.29668,155.49971 258.81834,155.49972 C 262.36565,155.49971 264.91275,156.63074 266.45511,158.911 C 267.81341,160.91132 268.58676,164.05649 268.76844,168.33116 C 268.74424,169.0075 268.7127,169.69268 268.7127,170.39671 L 268.7127,209.14139 L 268.82418,209.14139 L 283.56817,209.14139 L 283.65178,209.14139 L 283.65178,170.39671 C 283.65178,169.67067 283.62178,168.96515 283.59604,168.26856 C 283.7796,164.02683 284.55214,160.90124 285.8815,158.911 C 287.44949,156.63074 289.9966,155.49971 293.51827,155.49972 C 297.06557,155.49971 299.61267,156.63074 301.15504,158.911 C 302.72303,161.22011 303.49619,165.05684 303.49624,170.39671 L 303.49624,209.14139 L 318.35171,209.14139 L 318.35171,170.39671 C 318.35164,161.2468 316.30709,154.43421 312.21999,149.96029 C 308.13278,145.48638 301.89818,143.23161 293.51827,143.23161 C 286.02362,143.23161 280.24272,145.04527 276.18224,148.64585 C 272.12021,145.05546 266.32535,143.23161 258.81834,143.23161 z"
   style="font-size:88.53933716px;font-style:normal;font-weight:bold;fill:#aa0000;fill-opacity:1;stroke:#000000;stroke-width:1.77165353;stroke-linecap:butt;stroke-linejoin:miter;stroke-miterlimit:4;stroke-dasharray:none;stroke-opacity:1;font-family:Bitstream Vera Sans" />
</g>
  </g>
</svg>
