<?xml version="1.0" encoding="UTF-8" standalone="no"?>
<!-- Created with Inkscape (http://www.inkscape.org/) -->
<svg
   xmlns:dc="http://purl.org/dc/elements/1.1/"
   xmlns:cc="http://creativecommons.org/ns#"
   xmlns:rdf="http://www.w3.org/1999/02/22-rdf-syntax-ns#"
   xmlns:svg="http://www.w3.org/2000/svg"
   xmlns="http://www.w3.org/2000/svg"
   xmlns:sodipodi="http://sodipodi.sourceforge.net/DTD/sodipodi-0.dtd"
   xmlns:inkscape="http://www.inkscape.org/namespaces/inkscape"
   id="svg2403"
   sodipodi:version="0.32"
   inkscape:version="0.46"
   width="278.43506"
   height="167.29004"
   xml:space="preserve"
   sodipodi:docname="socket_fig.svg"
   version="1.0"
   inkscape:output_extension="org.inkscape.output.svg.inkscape"><metadata
     id="metadata2408"><rdf:RDF><cc:Work
         rdf:about=""><dc:format>image/svg+xml</dc:format><dc:type
           rdf:resource="http://purl.org/dc/dcmitype/StillImage" /></cc:Work></rdf:RDF></metadata><defs
     id="defs2406"><inkscape:perspective
       sodipodi:type="inkscape:persp3d"
       inkscape:vp_x="0 : 526.18109 : 1"
       inkscape:vp_y="0 : 1000 : 0"
       inkscape:vp_z="744.09448 : 526.18109 : 1"
       inkscape:persp3d-origin="372.04724 : 350.78739 : 1"
       id="perspective2410" /><clipPath
       clipPathUnits="userSpaceOnUse"
       id="clipPath2420"><path
         d="M 60.959999,27.640018 L 780.96,27.640018 L 780.96,567.63996 L 60.959999,567.63996 L 60.959999,27.640018 z"
         id="path2422" /></clipPath><clipPath
       clipPathUnits="userSpaceOnUse"
       id="clipPath2430"><path
         d="M 60.959999,27.640018 L 780.96,27.640018 L 780.96,567.63996 L 60.959999,567.63996 L 60.959999,27.640018 z"
         id="path2432" /></clipPath><clipPath
       clipPathUnits="userSpaceOnUse"
       id="clipPath2444"><path
         d="M 60.959999,27.640018 L 780.96,27.640018 L 780.96,567.63996 L 60.959999,567.63996 L 60.959999,27.640018 z"
         id="path2446" /></clipPath><clipPath
       clipPathUnits="userSpaceOnUse"
       id="clipPath2606"><path
         d="M 60.959999,27.640018 L 780.96,27.640018 L 780.96,567.63996 L 60.959999,567.63996 L 60.959999,27.640018 z"
         id="path2608" /></clipPath><clipPath
       clipPathUnits="userSpaceOnUse"
       id="clipPath2618"><path
         d="M 629.99994,503.08002 L 751.91992,503.08002 L 751.91992,532.60004 L 629.99994,532.60004 L 629.99994,503.08002 z"
         id="path2620" /></clipPath><clipPath
       clipPathUnits="userSpaceOnUse"
       id="clipPath2630"><path
         d="M 60.959999,27.640018 L 780.96,27.640018 L 780.96,567.63996 L 60.959999,567.63996 L 60.959999,27.640018 z"
         id="path2632" /></clipPath><clipPath
       clipPathUnits="userSpaceOnUse"
       id="clipPath2788"><path
         d="M 60.959999,27.640018 L 780.96,27.640018 L 780.96,567.63996 L 60.959999,567.63996 L 60.959999,27.640018 z"
         id="path2790" /></clipPath><clipPath
       clipPathUnits="userSpaceOnUse"
       id="clipPath2802"><path
         d="M 60.959999,27.640018 L 780.96,27.640018 L 780.96,567.63996 L 60.959999,567.63996 L 60.959999,27.640018 z"
         id="path2804" /></clipPath><clipPath
       clipPathUnits="userSpaceOnUse"
       id="clipPath2814"><path
         d="M 60.959999,27.640018 L 780.96,27.640018 L 780.96,567.63996 L 60.959999,567.63996 L 60.959999,27.640018 z"
         id="path2816" /></clipPath><clipPath
       clipPathUnits="userSpaceOnUse"
       id="clipPath2828"><path
         d="M 60.959999,27.640018 L 780.96,27.640018 L 780.96,567.63996 L 60.959999,567.63996 L 60.959999,27.640018 z"
         id="path2830" /></clipPath><clipPath
       clipPathUnits="userSpaceOnUse"
       id="clipPath2840"><path
         d="M 60.959999,27.640018 L 780.96,27.640018 L 780.96,567.63996 L 60.959999,567.63996 L 60.959999,27.640018 z"
         id="path2842" /></clipPath><clipPath
       clipPathUnits="userSpaceOnUse"
       id="clipPath2852"><path
         d="M 60.959999,27.640018 L 780.96,27.640018 L 780.96,567.63996 L 60.959999,567.63996 L 60.959999,27.640018 z"
         id="path2854" /></clipPath><clipPath
       clipPathUnits="userSpaceOnUse"
       id="clipPath2872"><path
         d="M 60.959999,27.640018 L 780.96,27.640018 L 780.96,567.63996 L 60.959999,567.63996 L 60.959999,27.640018 z"
         id="path2874" /></clipPath><clipPath
       clipPathUnits="userSpaceOnUse"
       id="clipPath2884"><path
         d="M 60.959999,27.640018 L 780.96,27.640018 L 780.96,567.63996 L 60.959999,567.63996 L 60.959999,27.640018 z"
         id="path2886" /></clipPath><clipPath
       clipPathUnits="userSpaceOnUse"
       id="clipPath2896"><path
         d="M 60.959999,27.640018 L 780.96,27.640018 L 780.96,567.63996 L 60.959999,567.63996 L 60.959999,27.640018 z"
         id="path2898" /></clipPath><clipPath
       clipPathUnits="userSpaceOnUse"
       id="clipPath2910"><path
         d="M 60.959999,27.640018 L 780.96,27.640018 L 780.96,567.63996 L 60.959999,567.63996 L 60.959999,27.640018 z"
         id="path2912" /></clipPath><clipPath
       clipPathUnits="userSpaceOnUse"
       id="clipPath2928"><path
         d="M 60.959999,27.640018 L 780.96,27.640018 L 780.96,567.63996 L 60.959999,567.63996 L 60.959999,27.640018 z"
         id="path2930" /></clipPath><clipPath
       clipPathUnits="userSpaceOnUse"
       id="clipPath2942"><path
         d="M 60.959999,27.640018 L 780.96,27.640018 L 780.96,567.63996 L 60.959999,567.63996 L 60.959999,27.640018 z"
         id="path2944" /></clipPath><clipPath
       clipPathUnits="userSpaceOnUse"
       id="clipPath2952"><path
         d="M 60.959999,27.640018 L 780.96,27.640018 L 780.96,567.63996 L 60.959999,567.63996 L 60.959999,27.640018 z"
         id="path2954" /></clipPath><clipPath
       clipPathUnits="userSpaceOnUse"
       id="clipPath2970"><path
         d="M 60.959999,27.640018 L 780.96,27.640018 L 780.96,567.63996 L 60.959999,567.63996 L 60.959999,27.640018 z"
         id="path2972" /></clipPath><clipPath
       clipPathUnits="userSpaceOnUse"
       id="clipPath2984"><path
         d="M 60.959999,27.640018 L 780.96,27.640018 L 780.96,567.63996 L 60.959999,567.63996 L 60.959999,27.640018 z"
         id="path2986" /></clipPath><clipPath
       clipPathUnits="userSpaceOnUse"
       id="clipPath2998"><path
         d="M 60.959999,27.640018 L 780.96,27.640018 L 780.96,567.63996 L 60.959999,567.63996 L 60.959999,27.640018 z"
         id="path3000" /></clipPath><clipPath
       clipPathUnits="userSpaceOnUse"
       id="clipPath3012"><path
         d="M 60.959999,27.640018 L 780.96,27.640018 L 780.96,567.63996 L 60.959999,567.63996 L 60.959999,27.640018 z"
         id="path3014" /></clipPath><clipPath
       clipPathUnits="userSpaceOnUse"
       id="clipPath3026"><path
         d="M 60.959999,27.640018 L 780.96,27.640018 L 780.96,567.63996 L 60.959999,567.63996 L 60.959999,27.640018 z"
         id="path3028" /></clipPath><clipPath
       clipPathUnits="userSpaceOnUse"
       id="clipPath3040"><path
         d="M 60.959999,27.640018 L 780.96,27.640018 L 780.96,567.63996 L 60.959999,567.63996 L 60.959999,27.640018 z"
         id="path3042" /></clipPath><clipPath
       clipPathUnits="userSpaceOnUse"
       id="clipPath3054"><path
         d="M 60.959999,27.640018 L 780.96,27.640018 L 780.96,567.63996 L 60.959999,567.63996 L 60.959999,27.640018 z"
         id="path3056" /></clipPath><clipPath
       clipPathUnits="userSpaceOnUse"
       id="clipPath3068"><path
         d="M 60.959999,27.640018 L 780.96,27.640018 L 780.96,567.63996 L 60.959999,567.63996 L 60.959999,27.640018 z"
         id="path3070" /></clipPath><clipPath
       clipPathUnits="userSpaceOnUse"
       id="clipPath3082"><path
         d="M 60.959999,27.640018 L 780.96,27.640018 L 780.96,567.63996 L 60.959999,567.63996 L 60.959999,27.640018 z"
         id="path3084" /></clipPath><clipPath
       clipPathUnits="userSpaceOnUse"
       id="clipPath3096"><path
         d="M 60.959999,27.640018 L 780.96,27.640018 L 780.96,567.63996 L 60.959999,567.63996 L 60.959999,27.640018 z"
         id="path3098" /></clipPath><clipPath
       clipPathUnits="userSpaceOnUse"
       id="clipPath3108"><path
         d="M 60.959999,27.640018 L 780.96,27.640018 L 780.96,567.63996 L 60.959999,567.63996 L 60.959999,27.640018 z"
         id="path3110" /></clipPath><clipPath
       clipPathUnits="userSpaceOnUse"
       id="clipPath3128"><path
         d="M 60.959999,27.640018 L 780.96,27.640018 L 780.96,567.63996 L 60.959999,567.63996 L 60.959999,27.640018 z"
         id="path3130" /></clipPath><clipPath
       clipPathUnits="userSpaceOnUse"
       id="clipPath3142"><path
         d="M 60.959999,27.640018 L 780.96,27.640018 L 780.96,567.63996 L 60.959999,567.63996 L 60.959999,27.640018 z"
         id="path3144" /></clipPath><clipPath
       clipPathUnits="userSpaceOnUse"
       id="clipPath3156"><path
         d="M 60.959999,27.640018 L 780.96,27.640018 L 780.96,567.63996 L 60.959999,567.63996 L 60.959999,27.640018 z"
         id="path3158" /></clipPath><clipPath
       clipPathUnits="userSpaceOnUse"
       id="clipPath3168"><path
         d="M 60.959999,27.640018 L 780.96,27.640018 L 780.96,567.63996 L 60.959999,567.63996 L 60.959999,27.640018 z"
         id="path3170" /></clipPath><clipPath
       clipPathUnits="userSpaceOnUse"
       id="clipPath3182"><path
         d="M 60.959999,27.640018 L 780.96,27.640018 L 780.96,567.63996 L 60.959999,567.63996 L 60.959999,27.640018 z"
         id="path3184" /></clipPath><clipPath
       clipPathUnits="userSpaceOnUse"
       id="clipPath3196"><path
         d="M 60.959999,27.640018 L 780.96,27.640018 L 780.96,567.63996 L 60.959999,567.63996 L 60.959999,27.640018 z"
         id="path3198" /></clipPath><clipPath
       clipPathUnits="userSpaceOnUse"
       id="clipPath3208"><path
         d="M 60.959999,27.640018 L 780.96,27.640018 L 780.96,567.63996 L 60.959999,567.63996 L 60.959999,27.640018 z"
         id="path3210" /></clipPath><clipPath
       clipPathUnits="userSpaceOnUse"
       id="clipPath3290"><path
         d="M 60.959999,27.640018 L 780.96,27.640018 L 780.96,567.63996 L 60.959999,567.63996 L 60.959999,27.640018 z"
         id="path3292" /></clipPath><clipPath
       clipPathUnits="userSpaceOnUse"
       id="clipPath3302"><path
         d="M 60.959999,27.640018 L 780.96,27.640018 L 780.96,567.63996 L 60.959999,567.63996 L 60.959999,27.640018 z"
         id="path3304" /></clipPath><clipPath
       clipPathUnits="userSpaceOnUse"
       id="clipPath3400"><path
         d="M 60.959999,27.640018 L 780.96,27.640018 L 780.96,567.63996 L 60.959999,567.63996 L 60.959999,27.640018 z"
         id="path3402" /></clipPath><clipPath
       clipPathUnits="userSpaceOnUse"
       id="clipPath3442"><path
         d="M 60.959999,27.640018 L 780.96,27.640018 L 780.96,567.63996 L 60.959999,567.63996 L 60.959999,27.640018 z"
         id="path3444" /></clipPath><clipPath
       clipPathUnits="userSpaceOnUse"
       id="clipPath3454"><path
         d="M 60.959999,27.640018 L 780.96,27.640018 L 780.96,567.63996 L 60.959999,567.63996 L 60.959999,27.640018 z"
         id="path3456" /></clipPath><clipPath
       clipPathUnits="userSpaceOnUse"
       id="clipPath3548"><path
         d="M 60.959999,27.640018 L 780.96,27.640018 L 780.96,567.63996 L 60.959999,567.63996 L 60.959999,27.640018 z"
         id="path3550" /></clipPath><clipPath
       clipPathUnits="userSpaceOnUse"
       id="clipPath3646"><path
         d="M 60.959999,27.640018 L 780.96,27.640018 L 780.96,567.63996 L 60.959999,567.63996 L 60.959999,27.640018 z"
         id="path3648" /></clipPath><clipPath
       clipPathUnits="userSpaceOnUse"
       id="clipPath3658"><path
         d="M 60.959999,27.640018 L 780.96,27.640018 L 780.96,567.63996 L 60.959999,567.63996 L 60.959999,27.640018 z"
         id="path3660" /></clipPath><clipPath
       clipPathUnits="userSpaceOnUse"
       id="clipPath3670"><path
         d="M 60.959999,27.640018 L 780.96,27.640018 L 780.96,567.63996 L 60.959999,567.63996 L 60.959999,27.640018 z"
         id="path3672" /></clipPath><clipPath
       clipPathUnits="userSpaceOnUse"
       id="clipPath3776"><path
         d="M 60.959999,27.640018 L 780.96,27.640018 L 780.96,567.63996 L 60.959999,567.63996 L 60.959999,27.640018 z"
         id="path3778" /></clipPath><clipPath
       clipPathUnits="userSpaceOnUse"
       id="clipPath3870"><path
         d="M 60.959999,27.640018 L 780.96,27.640018 L 780.96,567.63996 L 60.959999,567.63996 L 60.959999,27.640018 z"
         id="path3872" /></clipPath><clipPath
       clipPathUnits="userSpaceOnUse"
       id="clipPath3884"><path
         d="M 60.959999,27.640018 L 780.96,27.640018 L 780.96,567.63996 L 60.959999,567.63996 L 60.959999,27.640018 z"
         id="path3886" /></clipPath><clipPath
       clipPathUnits="userSpaceOnUse"
       id="clipPath3898"><path
         d="M 60.959999,27.640018 L 780.96,27.640018 L 780.96,567.63996 L 60.959999,567.63996 L 60.959999,27.640018 z"
         id="path3900" /></clipPath><clipPath
       clipPathUnits="userSpaceOnUse"
       id="clipPath3910"><path
         d="M 60.959999,27.640018 L 780.96,27.640018 L 780.96,567.63996 L 60.959999,567.63996 L 60.959999,27.640018 z"
         id="path3912" /></clipPath><clipPath
       clipPathUnits="userSpaceOnUse"
       id="clipPath3924"><path
         d="M 60.959999,27.640018 L 780.96,27.640018 L 780.96,567.63996 L 60.959999,567.63996 L 60.959999,27.640018 z"
         id="path3926" /></clipPath><clipPath
       clipPathUnits="userSpaceOnUse"
       id="clipPath3936"><path
         d="M 60.959999,27.640018 L 780.96,27.640018 L 780.96,567.63996 L 60.959999,567.63996 L 60.959999,27.640018 z"
         id="path3938" /></clipPath><clipPath
       clipPathUnits="userSpaceOnUse"
       id="clipPath3950"><path
         d="M 60.959999,27.640018 L 780.96,27.640018 L 780.96,567.63996 L 60.959999,567.63996 L 60.959999,27.640018 z"
         id="path3952" /></clipPath><clipPath
       clipPathUnits="userSpaceOnUse"
       id="clipPath3964"><path
         d="M 60.959999,27.640018 L 780.96,27.640018 L 780.96,567.63996 L 60.959999,567.63996 L 60.959999,27.640018 z"
         id="path3966" /></clipPath><clipPath
       clipPathUnits="userSpaceOnUse"
       id="clipPath3984"><path
         d="M 60.959999,27.640018 L 780.96,27.640018 L 780.96,567.63996 L 60.959999,567.63996 L 60.959999,27.640018 z"
         id="path3986" /></clipPath><clipPath
       clipPathUnits="userSpaceOnUse"
       id="clipPath3998"><path
         d="M 60.959999,27.640018 L 780.96,27.640018 L 780.96,567.63996 L 60.959999,567.63996 L 60.959999,27.640018 z"
         id="path4000" /></clipPath><clipPath
       clipPathUnits="userSpaceOnUse"
       id="clipPath4018"><path
         d="M 60.959999,27.640018 L 780.96,27.640018 L 780.96,567.63996 L 60.959999,567.63996 L 60.959999,27.640018 z"
         id="path4020" /></clipPath><clipPath
       clipPathUnits="userSpaceOnUse"
       id="clipPath4030"><path
         d="M 60.959999,27.640018 L 780.96,27.640018 L 780.96,567.63996 L 60.959999,567.63996 L 60.959999,27.640018 z"
         id="path4032" /></clipPath><clipPath
       clipPathUnits="userSpaceOnUse"
       id="clipPath4042"><path
         d="M 60.959999,27.640018 L 780.96,27.640018 L 780.96,567.63996 L 60.959999,567.63996 L 60.959999,27.640018 z"
         id="path4044" /></clipPath><clipPath
       clipPathUnits="userSpaceOnUse"
       id="clipPath4056"><path
         d="M 60.959999,27.640018 L 780.96,27.640018 L 780.96,567.63996 L 60.959999,567.63996 L 60.959999,27.640018 z"
         id="path4058" /></clipPath><clipPath
       clipPathUnits="userSpaceOnUse"
       id="clipPath4070"><path
         d="M 60.959999,27.640018 L 780.96,27.640018 L 780.96,567.63996 L 60.959999,567.63996 L 60.959999,27.640018 z"
         id="path4072" /></clipPath><clipPath
       clipPathUnits="userSpaceOnUse"
       id="clipPath4084"><path
         d="M 60.959999,27.640018 L 780.96,27.640018 L 780.96,567.63996 L 60.959999,567.63996 L 60.959999,27.640018 z"
         id="path4086" /></clipPath><clipPath
       clipPathUnits="userSpaceOnUse"
       id="clipPath4096"><path
         d="M 60.959999,27.640018 L 780.96,27.640018 L 780.96,567.63996 L 60.959999,567.63996 L 60.959999,27.640018 z"
         id="path4098" /></clipPath><clipPath
       clipPathUnits="userSpaceOnUse"
       id="clipPath4110"><path
         d="M 60.959999,27.640018 L 780.96,27.640018 L 780.96,567.63996 L 60.959999,567.63996 L 60.959999,27.640018 z"
         id="path4112" /></clipPath><clipPath
       clipPathUnits="userSpaceOnUse"
       id="clipPath4124"><path
         d="M 60.959999,27.640018 L 780.96,27.640018 L 780.96,567.63996 L 60.959999,567.63996 L 60.959999,27.640018 z"
         id="path4126" /></clipPath><clipPath
       clipPathUnits="userSpaceOnUse"
       id="clipPath4138"><path
         d="M 60.959999,27.640018 L 780.96,27.640018 L 780.96,567.63996 L 60.959999,567.63996 L 60.959999,27.640018 z"
         id="path4140" /></clipPath><clipPath
       clipPathUnits="userSpaceOnUse"
       id="clipPath4158"><path
         d="M 60.959999,27.640018 L 780.96,27.640018 L 780.96,567.63996 L 60.959999,567.63996 L 60.959999,27.640018 z"
         id="path4160" /></clipPath><clipPath
       clipPathUnits="userSpaceOnUse"
       id="clipPath4196"><path
         d="M 60.959999,27.640018 L 780.96,27.640018 L 780.96,567.63996 L 60.959999,567.63996 L 60.959999,27.640018 z"
         id="path4198" /></clipPath><clipPath
       clipPathUnits="userSpaceOnUse"
       id="clipPath4226"><path
         d="M 60.959999,27.640018 L 780.96,27.640018 L 780.96,567.63996 L 60.959999,567.63996 L 60.959999,27.640018 z"
         id="path4228" /></clipPath><clipPath
       clipPathUnits="userSpaceOnUse"
       id="clipPath4284"><path
         d="M 60.959999,27.640018 L 780.96,27.640018 L 780.96,567.63996 L 60.959999,567.63996 L 60.959999,27.640018 z"
         id="path4286" /></clipPath><clipPath
       clipPathUnits="userSpaceOnUse"
       id="clipPath4296"><path
         d="M 60.959999,27.640018 L 780.96,27.640018 L 780.96,567.63996 L 60.959999,567.63996 L 60.959999,27.640018 z"
         id="path4298" /></clipPath><clipPath
       clipPathUnits="userSpaceOnUse"
       id="clipPath4308"><path
         d="M 60.959999,27.640018 L 780.96,27.640018 L 780.96,567.63996 L 60.959999,567.63996 L 60.959999,27.640018 z"
         id="path4310" /></clipPath><clipPath
       clipPathUnits="userSpaceOnUse"
       id="clipPath4320"><path
         d="M 60.959999,27.640018 L 780.96,27.640018 L 780.96,567.63996 L 60.959999,567.63996 L 60.959999,27.640018 z"
         id="path4322" /></clipPath><clipPath
       clipPathUnits="userSpaceOnUse"
       id="clipPath4332"><path
         d="M 60.959999,27.640018 L 780.96,27.640018 L 780.96,567.63996 L 60.959999,567.63996 L 60.959999,27.640018 z"
         id="path4334" /></clipPath><clipPath
       clipPathUnits="userSpaceOnUse"
       id="clipPath4350"><path
         d="M 60.959999,27.640018 L 780.96,27.640018 L 780.96,567.63996 L 60.959999,567.63996 L 60.959999,27.640018 z"
         id="path4352" /></clipPath><clipPath
       clipPathUnits="userSpaceOnUse"
       id="clipPath4362"><path
         d="M 60.959999,27.640018 L 780.96,27.640018 L 780.96,567.63996 L 60.959999,567.63996 L 60.959999,27.640018 z"
         id="path4364" /></clipPath><clipPath
       clipPathUnits="userSpaceOnUse"
       id="clipPath4374"><path
         d="M 60.959999,27.640018 L 780.96,27.640018 L 780.96,567.63996 L 60.959999,567.63996 L 60.959999,27.640018 z"
         id="path4376" /></clipPath><clipPath
       clipPathUnits="userSpaceOnUse"
       id="clipPath4386"><path
         d="M 60.959999,27.640018 L 780.96,27.640018 L 780.96,567.63996 L 60.959999,567.63996 L 60.959999,27.640018 z"
         id="path4388" /></clipPath><clipPath
       clipPathUnits="userSpaceOnUse"
       id="clipPath4398"><path
         d="M 60.959999,27.640018 L 780.96,27.640018 L 780.96,567.63996 L 60.959999,567.63996 L 60.959999,27.640018 z"
         id="path4400" /></clipPath><clipPath
       clipPathUnits="userSpaceOnUse"
       id="clipPath4484"><path
         d="M 60.959999,27.640018 L 780.96,27.640018 L 780.96,567.63996 L 60.959999,567.63996 L 60.959999,27.640018 z"
         id="path4486" /></clipPath></defs><sodipodi:namedview
     inkscape:window-height="722"
     inkscape:window-width="986"
     inkscape:pageshadow="2"
     inkscape:pageopacity="0.0"
     guidetolerance="10.0"
     gridtolerance="50"
     objecttolerance="10.0"
     borderopacity="1.0"
     bordercolor="#666666"
     pagecolor="#ffffff"
     id="base"
     showgrid="true"
     inkscape:showpageshadow="true"
     inkscape:zoom="2.2770122"
     inkscape:cx="194.33361"
     inkscape:cy="76.453821"
     inkscape:window-x="6"
     inkscape:window-y="25"
     inkscape:current-layer="g2412"><inkscape:grid
       type="xygrid"
       id="grid4028"
       visible="true"
       enabled="true" /></sodipodi:namedview><g
     id="g2412"
     inkscape:groupmode="layer"
     inkscape:label="Presentation-13-OSCI_2_swan"
     transform="matrix(1.25,0,0,-1.25,-191.35376,335.76805)"><rect
       style="opacity:1;fill:#008400;fill-opacity:1;fill-rule:nonzero;stroke:#000000;stroke-width:1.12;stroke-miterlimit:4;stroke-dasharray:none;stroke-dashoffset:0;stroke-opacity:1"
       id="rect4024"
       width="25.296307"
       height="51.997963"
       x="300.96741"
       y="-235.26497"
       transform="scale(1,-1)" /><rect
       style="opacity:1;fill:#008400;fill-opacity:1;fill-rule:nonzero;stroke:#000000;stroke-width:1.39999998;stroke-miterlimit:4;stroke-dasharray:none;stroke-dashoffset:0;stroke-opacity:1"
       id="rect3252"
       width="31.620384"
       height="64.997452"
       x="72.463379"
       y="27.304449"
       transform="matrix(0.8,0,0,-0.8,153.08301,257.10852)" /><g
       id="g2414" /><g
       id="g2938"><g
         id="g2940"
         clip-path="url(#clipPath2942)"><g
           id="g2946"
           transform="matrix(0.24,0,0,0.24,60.959999,8.6800194)" /></g></g><g
       transform="translate(35.569323,-180.8)"
       id="g3022"><g
         clip-path="url(#clipPath3026)"
         id="g3024"><path
           id="path3030"
           style="fill:#00ccff;fill-opacity:1;fill-rule:nonzero;stroke:none"
           d="M 269.75998,412.84003 L 289.19998,412.84003 L 289.19998,394.12003 L 269.75998,394.12003 L 269.75998,412.84003 z" /><g
           transform="matrix(0.24,0,0,-0.24,60.959999,567.64001)"
           id="g3032"><path
             id="path3034"
             style="fill:none;stroke:#000000;stroke-width:4;stroke-linecap:butt;stroke-linejoin:miter;stroke-miterlimit:10;stroke-dasharray:none;stroke-opacity:1"
             d="M 870,644.99988 L 951,644.99988 L 951,722.99988 L 870,722.99988 L 870,644.99988 z" /></g></g></g><g
       transform="translate(-6.4,-195.2)"
       id="g3064"><g
         clip-path="url(#clipPath3068)"
         id="g3066"><path
           id="path3072"
           style="fill:#ffff99;fill-opacity:1;fill-rule:nonzero;stroke:none"
           d="M 166.79999,437.80002 L 217.91998,437.80002 L 217.91998,365.80002 L 166.79999,365.80002 L 166.79999,437.80002 z" /><g
           transform="matrix(0.24,0,0,-0.24,60.959999,567.64001)"
           id="g3074"><path
             id="path3076"
             style="fill:none;stroke:#000000;stroke-width:4;stroke-linecap:butt;stroke-linejoin:miter;stroke-miterlimit:10;stroke-dasharray:none;stroke-opacity:1"
             d="M 441,540.99988 L 654,540.99988 L 654,840.99988 L 441,840.99988 L 441,540.99988 z" /></g></g></g><g
       transform="translate(-6.4,-180.8)"
       id="g3078"><g
         clip-path="url(#clipPath3082)"
         id="g3080"><path
           id="path3086"
           style="fill:#00ccff;fill-opacity:1;fill-rule:nonzero;stroke:none"
           d="M 217.67999,412.84003 L 237.11999,412.84003 L 237.11999,394.12003 L 217.67999,394.12003 L 217.67999,412.84003 z" /><g
           transform="matrix(0.24,0,0,-0.24,60.959999,567.64001)"
           id="g3088"><path
             id="path3090"
             style="fill:none;stroke:#000000;stroke-width:4;stroke-linecap:butt;stroke-linejoin:miter;stroke-miterlimit:10;stroke-dasharray:none;stroke-opacity:1"
             d="M 653.00006,644.99988 L 734.00006,644.99988 L 734.00006,722.99988 L 653.00006,722.99988 L 653.00006,644.99988 z" /></g></g></g><g
       transform="matrix(0.5466553,0,0,-0.24,-170.26087,386.84001)"
       id="g3100"><path
         id="path3102"
         style="fill:#ff9900;fill-opacity:1;fill-rule:evenodd;stroke:#000000;stroke-width:4;stroke-linecap:round;stroke-linejoin:miter;stroke-miterlimit:8;stroke-dasharray:none;stroke-opacity:1"
         d="M 834.00012,658.99988 L 834.00012,674.99988 L 733.00012,674.99988 L 733.00012,706.99988 L 834.00012,706.99988 L 834.00012,722.99988 L 868.00012,690.99988 L 834.00012,658.99988 z" /></g><g
       transform="translate(-6.4,-195.2)"
       id="g3104"><g
         clip-path="url(#clipPath3108)"
         id="g3106"><path
           id="path3112"
           style="fill:#ffffff;fill-opacity:1;fill-rule:evenodd;stroke:none"
           d="M 178.79999,395.80002 C 178.79999,402.28003 182.64,407.80002 187.2,407.80002 L 192,407.80002 C 195.60001,407.80002 198.72,404.68002 199.91998,399.88 L 202.32001,399.88 L 198,395.80002 L 192.72,399.88 L 195.12,399.88 C 194.16,403.48001 192.23999,406.12003 189.60001,407.32001 L 189.60001,407.32001 C 186,405.64001 183.60001,401.08002 183.60001,395.80002 L 178.79999,395.80002 z" /><path
           id="path3114"
           style="fill:#cdcdcd;fill-opacity:1;fill-rule:evenodd;stroke:none"
           d="M 178.79999,395.80002 C 178.79999,402.28003 182.64,407.80002 187.2,407.80002 C 188.16,407.80002 188.88,407.56 189.60001,407.32001 L 189.60001,407.32001 C 186,405.64001 183.60001,401.08002 183.60001,395.80002 L 178.79999,395.80002 z" /><g
           transform="matrix(0.24,0,0,-0.24,61.079998,567.52002)"
           id="g3116"><path
             id="path3118"
             style="fill:none;stroke:#000000;stroke-width:3;stroke-linecap:round;stroke-linejoin:round;stroke-miterlimit:8;stroke-dasharray:none;stroke-opacity:1"
             d="M 491.00006,715.99988 C 491.00006,688.99976 507.00006,665.99988 526,665.99988 L 546.00006,665.99988 C 561.00006,665.99988 574.00006,678.99988 579.00006,698.99988 L 589.00006,698.99988 L 571.00006,715.99988 L 549.00006,698.99988 L 559.00006,698.99988 C 555.00006,683.99988 547.00006,672.99988 536.00006,667.99988 L 536.00006,667.99988 C 521.00006,674.99988 511.00006,693.99988 511.00006,715.99988 L 491.00006,715.99988 z" /></g><g
           transform="matrix(0.24,0,0,-0.24,61.079998,567.52002)"
           id="g3120"><path
             id="path3122"
             style="fill:none;stroke:#000000;stroke-width:3;stroke-linecap:round;stroke-linejoin:round;stroke-miterlimit:8;stroke-dasharray:none;stroke-opacity:1"
             d="M 526,665.99988 C 530.00006,665.99988 533.00006,667 536.00006,667.99988" /></g></g></g><g
       transform="matrix(1.4618103,0,0,2.3344183,-263.74844,-778.46281)"
       id="g3124"><g
         clip-path="url(#clipPath3128)"
         id="g3126"><path
           id="path3132"
           style="fill:#008080;fill-opacity:1;fill-rule:nonzero;stroke:none"
           d="M 402.95999,436.12 L 436.07999,436.12 L 436.07999,406.12003 L 402.95999,406.12003 L 402.95999,436.12 z" /><g
           transform="matrix(0.24,0,0,-0.24,60.959999,567.64001)"
           id="g3134"><path
             id="path3136"
             style="fill:none;stroke:#000000;stroke-width:4;stroke-linecap:butt;stroke-linejoin:miter;stroke-miterlimit:10;stroke-dasharray:none;stroke-opacity:1"
             d="M 1425.0001,548 L 1563.0001,548 L 1563.0001,672.99988 L 1425.0001,672.99988 L 1425.0001,548 z" /></g></g></g><g
       transform="translate(-34.102426,-193.88201)"
       id="g3204"><g
         clip-path="url(#clipPath3208)"
         id="g3206"><g
           transform="matrix(0.24,0,0,0.24,60.959999,8.6800194)"
           id="g3212"><text
   transform="matrix(3.3333333,0,0,-3.3333333,-227.33333,3256.3333)"
   id="text4648"
   y="575.12653"
   x="224.32945"
   style="font-size:12px;font-style:normal;font-weight:normal;fill:#000000;fill-opacity:1;stroke:none;stroke-width:1px;stroke-linecap:butt;stroke-linejoin:miter;stroke-opacity:1;font-family:Bitstream Vera Sans"
   xml:space="preserve"><tspan
     style="font-size:18px;font-weight:bold;-inkscape-font-specification:Bitstream Vera Sans Bold"
     y="575.12653"
     x="224.32945"
     id="tspan4650"
     sodipodi:role="line">Initiator</tspan></text>

</g></g></g><g
       transform="translate(7.781881,7.024e-2)"
       id="g4280"><g
         clip-path="url(#clipPath4284)"
         id="g4282"><g
           transform="matrix(0.24,0,0,-0.24,60.959999,567.64001)"
           id="g4288" /></g></g><g
       transform="translate(138.52686,-192.20857)"
       id="g4672"><g
         clip-path="url(#clipPath3208)"
         id="g4674"><g
           transform="matrix(0.24,0,0,0.24,60.959999,8.6800194)"
           id="g4676"><text
   transform="matrix(3.3333333,0,0,-3.3333333,-227.33333,3256.3333)"
   id="text4678"
   y="575.12653"
   x="224.32945"
   style="font-size:12px;font-style:normal;font-weight:normal;fill:#000000;fill-opacity:1;stroke:none;stroke-width:1px;stroke-linecap:butt;stroke-linejoin:miter;stroke-opacity:1;font-family:Bitstream Vera Sans"
   xml:space="preserve"><tspan
     style="font-size:18px;font-weight:bold;-inkscape-font-specification:Bitstream Vera Sans Bold"
     y="575.12653"
     x="224.32945"
     id="tspan4680"
     sodipodi:role="line">Target</tspan></text>

</g></g></g><g
       transform="matrix(-1,0,0,1,500.29822,-207.29379)"
       id="g2734"><g
         clip-path="url(#clipPath3026)"
         id="g2736"><path
           id="path2738"
           style="fill:#00ccff;fill-opacity:1;fill-rule:nonzero;stroke:none"
           d="M 269.75998,412.84003 L 289.19998,412.84003 L 289.19998,394.12003 L 269.75998,394.12003 L 269.75998,412.84003 z" /><g
           transform="matrix(0.24,0,0,-0.24,60.959999,567.64001)"
           id="g2740"><path
             id="path2742"
             style="fill:none;stroke:#000000;stroke-width:4;stroke-linecap:butt;stroke-linejoin:miter;stroke-miterlimit:10;stroke-dasharray:none;stroke-opacity:1"
             d="M 870,644.99988 L 951,644.99988 L 951,722.99988 L 870,722.99988 L 870,644.99988 z" /></g></g></g><g
       transform="matrix(-1,0,0,1,542.92331,-207.29379)"
       id="g2744"><g
         clip-path="url(#clipPath3082)"
         id="g2746"><path
           id="path2748"
           style="fill:#00ccff;fill-opacity:1;fill-rule:nonzero;stroke:none"
           d="M 217.67999,412.84003 L 237.11999,412.84003 L 237.11999,394.12003 L 217.67999,394.12003 L 217.67999,412.84003 z" /><g
           transform="matrix(0.24,0,0,-0.24,60.959999,567.64001)"
           id="g2750"><path
             id="path2752"
             style="fill:none;stroke:#000000;stroke-width:4;stroke-linecap:butt;stroke-linejoin:miter;stroke-miterlimit:10;stroke-dasharray:none;stroke-opacity:1"
             d="M 653.00006,644.99988 L 734.00006,644.99988 L 734.00006,722.99988 L 653.00006,722.99988 L 653.00006,644.99988 z" /></g></g></g><g
       transform="matrix(-2.297388,0,0,1,850.28164,-207.29379)"
       id="g2754"><g
         clip-path="url(#clipPath3096)"
         id="g2756"><g
           transform="matrix(0.24,0,0,-0.24,60.959999,567.64001)"
           id="g2758"><path
             id="path2760"
             style="fill:#ff9900;fill-opacity:1;fill-rule:evenodd;stroke:#000000;stroke-width:4;stroke-linecap:round;stroke-linejoin:miter;stroke-miterlimit:8;stroke-dasharray:none;stroke-opacity:1"
             d="M 834.00012,658.99988 L 834.00012,674.99988 L 733.00012,674.99988 L 733.00012,706.99988 L 834.00012,706.99988 L 834.00012,722.99988 L 868.00012,690.99988 L 834.00012,658.99988 z" /></g></g></g><g
       transform="translate(67.697148,-92.699651)"
       id="g2797"><g
         clip-path="url(#clipPath3208)"
         id="g2799"><g
           transform="matrix(0.24,0,0,0.24,60.959999,8.6800194)"
           id="g2801"><text
   transform="matrix(3.3333333,0,0,-3.3333333,-227.33333,3256.3333)"
   id="text2803"
   y="575.12653"
   x="224.32945"
   style="font-size:12px;font-style:normal;font-weight:normal;text-align:center;text-anchor:middle;fill:#000000;fill-opacity:1;stroke:none;stroke-width:1px;stroke-linecap:butt;stroke-linejoin:miter;stroke-opacity:1;font-family:Bitstream Vera Sans"
   xml:space="preserve"><tspan
     style="font-size:10px;font-weight:normal;text-align:center;text-anchor:middle;-inkscape-font-specification:Bitstream Vera Sans"
     y="575.12653"
     x="224.32945"
     id="tspan2805"
     sodipodi:role="line">Forward</tspan><tspan
     style="font-size:10px;font-weight:normal;text-align:center;text-anchor:middle;-inkscape-font-specification:Bitstream Vera Sans"
     y="587.62653"
     x="224.32945"
     sodipodi:role="line"
     id="tspan2807">path</tspan></text>

</g></g></g><g
       transform="translate(80.497148,-158.20053)"
       id="g2809"><g
         clip-path="url(#clipPath3208)"
         id="g2811"
         transform="translate(11.2,9.6)"><g
           transform="matrix(0.24,0,0,0.24,60.959999,8.6800194)"
           id="g2813"><text
   transform="matrix(3.3333333,0,0,-3.3333333,-227.33333,3256.3333)"
   id="text2815"
   y="575.12653"
   x="224.32945"
   style="font-size:12px;font-style:normal;font-weight:normal;text-align:center;text-anchor:middle;fill:#000000;fill-opacity:1;stroke:none;stroke-width:1px;stroke-linecap:butt;stroke-linejoin:miter;stroke-opacity:1;font-family:Bitstream Vera Sans"
   xml:space="preserve"><tspan
     style="font-size:10px;font-weight:normal;text-align:center;text-anchor:middle;-inkscape-font-specification:Bitstream Vera Sans"
     y="575.12653"
     x="224.32945"
     id="tspan2817"
     sodipodi:role="line">Backward</tspan><tspan
     style="font-size:10px;font-weight:normal;text-align:center;text-anchor:middle;-inkscape-font-specification:Bitstream Vera Sans"
     y="587.62653"
     x="224.32945"
     sodipodi:role="line"
     id="tspan2819">path</tspan></text>

</g></g></g><g
       id="g4032"><g
         id="g4036"
         style="fill:#ff0000;fill-opacity:1;stroke:none"
         transform="matrix(-1.0765286,1.3644987,-1.6447315,-0.8931075,775.39851,-70.378302)" /><g
         id="g4040"
         style="fill:#ff0000;fill-opacity:1;stroke:#ff0000;stroke-opacity:1"
         transform="translate(24.256531,98.164428)"><g
           id="g4059"
           transform="matrix(0.6782676,-0.734815,0.734815,0.6782676,-10.438112,243.71739)"
           inkscape:transform-center-x="18.767611"><rect
             transform="scale(1,-1)"
             y="-148.61798"
             x="244.82648"
             height="3.7895372"
             width="28.160999"
             id="rect4042"
             style="opacity:1;fill:#ff0000;fill-opacity:1;fill-rule:nonzero;stroke:#ff0000;stroke-width:0.87268096;stroke-miterlimit:4;stroke-dasharray:none;stroke-dashoffset:0;stroke-opacity:1" /><path
             transform="matrix(0,0.8,0.8,0,173.05794,22.730444)"
             d="M 160,125 L 155.01809,133.69158 L 149.98191,125.03133 L 160,125 z"
             inkscape:randomized="0"
             inkscape:rounded="0"
             inkscape:flatsided="true"
             sodipodi:arg2="0.52047136"
             sodipodi:arg1="-0.52672619"
             sodipodi:r2="2.8919873"
             sodipodi:r1="5.7839746"
             sodipodi:cy="127.90764"
             sodipodi:cx="155"
             sodipodi:sides="3"
             id="path4045"
             style="opacity:1;fill:#ff0000;fill-opacity:1;fill-rule:nonzero;stroke:#ff0000;stroke-width:1.39999998;stroke-miterlimit:4;stroke-dasharray:none;stroke-dashoffset:0;stroke-opacity:1"
             sodipodi:type="star" /></g></g><g
         id="g4053"
         style="fill:#ff0000;fill-opacity:1;stroke:#ff0000;stroke-opacity:1"
         transform="matrix(-0.5413124,0.8408215,-0.8408215,-0.5413124,496.90488,26.422273)"><rect
           style="opacity:1;fill:#ff0000;fill-opacity:1;fill-rule:nonzero;stroke:#ff0000;stroke-width:0.87268096;stroke-miterlimit:4;stroke-dasharray:none;stroke-dashoffset:0;stroke-opacity:1"
           id="rect4055"
           width="28.160999"
           height="3.7895372"
           x="244.82648"
           y="-148.61798"
           transform="scale(1,-1)" /><path
           sodipodi:type="star"
           style="opacity:1;fill:#ff0000;fill-opacity:1;fill-rule:nonzero;stroke:#ff0000;stroke-width:1.39999998;stroke-miterlimit:4;stroke-dasharray:none;stroke-dashoffset:0;stroke-opacity:1"
           id="path4057"
           sodipodi:sides="3"
           sodipodi:cx="155"
           sodipodi:cy="127.90764"
           sodipodi:r1="5.7839746"
           sodipodi:r2="2.8919873"
           sodipodi:arg1="-0.52672619"
           sodipodi:arg2="0.52047136"
           inkscape:flatsided="true"
           inkscape:rounded="0"
           inkscape:randomized="0"
           d="M 160,125 L 155.01809,133.69158 L 149.98191,125.03133 L 160,125 z"
           transform="matrix(0,0.8,0.8,0,173.05794,22.730444)" /></g></g><g
       transform="translate(66.050698,-184.91639)"
       id="g4063"><g
         clip-path="url(#clipPath3208)"
         id="g4065"
         transform="translate(11.2,9.6)"><g
           transform="matrix(0.24,0,0,0.24,60.959999,8.6800194)"
           id="g4067"><text
   transform="matrix(3.3333333,0,0,-3.3333333,-227.33333,3256.3333)"
   id="text4069"
   y="575.12653"
   x="224.32945"
   style="font-size:12px;font-style:normal;font-weight:normal;text-align:center;text-anchor:middle;fill:#000000;fill-opacity:1;stroke:none;stroke-width:1px;stroke-linecap:butt;stroke-linejoin:miter;stroke-opacity:1;font-family:Bitstream Vera Sans"
   xml:space="preserve"><tspan
     style="font-size:10px;font-weight:bold;text-align:center;text-anchor:middle;-inkscape-font-specification:Bitstream Vera Sans Bold"
     y="575.12653"
     x="224.32945"
     sodipodi:role="line"
     id="tspan4073">Initiator</tspan><tspan
     style="font-size:10px;font-weight:bold;text-align:center;text-anchor:middle;-inkscape-font-specification:Bitstream Vera Sans Bold"
     y="587.62653"
     x="224.32945"
     sodipodi:role="line"
     id="tspan4077">socket</tspan></text>

</g></g></g><text
       transform="scale(1,-1)"
       id="text4079"
       y="-262.78241"
       x="271.43457"
       style="font-size:9.60000038px;font-style:normal;font-weight:normal;text-align:center;text-anchor:middle;fill:#000000;fill-opacity:1;stroke:none;stroke-width:1px;stroke-linecap:butt;stroke-linejoin:miter;stroke-opacity:1;font-family:Bitstream Vera Sans"
       xml:space="preserve"><tspan
         style="font-size:8px;font-weight:bold;text-align:center;text-anchor:middle;-inkscape-font-specification:Bitstream Vera Sans Bold"
         y="-262.78241"
         x="271.43457"
         sodipodi:role="line"
         id="tspan4081">Target</tspan><tspan
         style="font-size:8px;font-weight:bold;text-align:center;text-anchor:middle;-inkscape-font-specification:Bitstream Vera Sans Bold"
         y="-252.78241"
         x="271.43457"
         sodipodi:role="line"
         id="tspan4083">socket</tspan></text>
</g></svg>